<svg xmlns="http://www.w3.org/2000/svg" id="loader" width="969.445" height="537.924" viewBox="0 0 969.445 537.924">
            <path id="Path_919" data-name="Path 919" d="M937.772,551.495V375.578a.124.124,0,0,0-.116-.126L865.822,368H865.8l-37.533,2.314V239.24a.132.132,0,0,0-.11-.126l-69.643-11.886h-.035l-11.905,1.3V218.61a5.31,5.31,0,0,0,3.25-5.11c0-2.167-1.288-4.011-3-4.3l-.021-.005-.094-.013-.016,0-.591-.083c-.094-.016-.183-.03-.274-.038l-.022,0v0a2.379,2.379,0,0,0-.242-.013,2.793,2.793,0,0,0-.422.032c-2.158.328-3.849,2.632-3.849,5.244,0,2.322,1.36,4.231,3.083,4.4l.6.089.124.019.048.005.027,0a2.411,2.411,0,0,0,.245.011l.126,0v9.8l-12.11,1.325v-6.876a3.8,3.8,0,0,0,1.954-3.451,2.983,2.983,0,0,0-1.941-3v-2.607a6.745,6.745,0,0,0,4.36-6.612c0-2.769-1.634-5.123-3.8-5.492l-.024-.005-.121-.019-.019.121,0-.124-.758-.107c-.113-.022-.229-.038-.344-.048l-.03,0h0c-.1-.008-.2-.016-.3-.016a3.911,3.911,0,0,0-.532.04c-2.739.419-4.884,3.363-4.884,6.707,0,2.965,1.726,5.4,3.9,5.618l.774.113c.051.008.1.016.153.022l.067.011.024,0c.1.008.21.013.315.013s.188-.005.28-.013V216.5l-.1,0a1.857,1.857,0,0,0-.3.021,3.605,3.605,0,0,0-2.693,3.691c0,1.637.954,2.981,2.164,3.1l.419.062.083.013.035.005h.022c.056.005.113.008.172.008s.124-.005.188-.011v6.68L714.837,232v-91.8a.128.128,0,0,0-.1-.126l-30.21-6.336a.217.217,0,0,0-.043,0l-4.312.61-.586-.153v-3.18a.132.132,0,0,0-.1-.129L675.272,130v-10.86a.122.122,0,0,0-.1-.124l-22.482-4.906v-7.043a.129.129,0,0,0-.1-.126l-16.461-3.674a.108.108,0,0,0-.051,0l-16.491,2.624a.125.125,0,0,0-.108.124v.855l-1.478-.32v-55.4a.125.125,0,0,0-.118-.126l-2.124-.11a.134.134,0,0,0-.094.038.12.12,0,0,0-.04.091v54.988l-19.311-4.209a.345.345,0,0,0-.051,0L570.5,106l-26.542-5.666v-28.4a.129.129,0,0,0-.1-.126l-33.78-7.7V38.035a.129.129,0,0,0-.137-.129l-1.543.081a.128.128,0,0,0-.121.129V63.7l-1.07-.242h0a.123.123,0,0,0-.054,0l-4.873.887V14.058a.131.131,0,0,0-.04-.094.138.138,0,0,0-.091-.035l-2.352.089a.128.128,0,0,0-.124.129V64.81l-32.092,5.83V68.4a.127.127,0,0,0-.1-.126L451.805,64.8v0a.108.108,0,0,0-.051,0L430.941,68.67a.13.13,0,0,0-.1.129v8.556l-23.413,4.231a.127.127,0,0,0-.108.126v131.2l-52.892-8.008h-.038l-5.454.755v-9.534a5.917,5.917,0,0,0,2.849-5.427c0-2.333-1.207-4.325-2.809-4.639l-.021-.008-.091-.013-.013,0-.559-.091q-.121-.024-.25-.04l-.019,0h0c-.073-.005-.153-.011-.228-.011a2.216,2.216,0,0,0-.4.035c-2.019.355-3.6,2.841-3.6,5.661,0,2.505,1.274,4.564,2.887,4.75l.564.094.116.021.051.005.022,0a2.279,2.279,0,0,0,.234.013,1.988,1.988,0,0,0,.25-.016V205.8l-11.868,1.64v-6.61a4.278,4.278,0,0,0,1.712-3.634,3.266,3.266,0,0,0-1.707-3.175V191.5c2.36-.981,3.959-3.79,3.959-7.11,0-3-1.546-5.551-3.6-5.954l-.027-.008-.113-.019-.022.129,0-.132-.72-.118c-.108-.021-.215-.038-.323-.051l-.027-.005v0a2.719,2.719,0,0,0-.293-.016,2.686,2.686,0,0,0-.508.046c-2.594.452-4.623,3.648-4.623,7.271,0,3.218,1.632,5.86,3.7,6.094l.731.124c.048.011.1.019.148.027l.059.011h.027a2.857,2.857,0,0,0,.3.016,2.634,2.634,0,0,0,.293-.016v2.04l-.065,0a1.414,1.414,0,0,0-.282.027c-1.419.25-2.532,1.989-2.532,3.962,0,1.755.9,3.2,2.035,3.33l.39.067.081.013.032.005h.022a1.121,1.121,0,0,0,.164.011c.056,0,.116-.005.169-.011v6.354l-23.574,3.255a.129.129,0,0,0-.11.126v31.052l-7.389-.992a.066.066,0,0,0-.032,0l-6.341.793a.132.132,0,0,0-.113.129v.543l-7.588.941v-9.392a5.772,5.772,0,0,0,2.736-5.258c0-2.266-1.172-4.2-2.731-4.508l-.021-.005-.086-.013-.019.1h0l0-.1-.543-.089a1.743,1.743,0,0,0-.242-.038l-.019-.005v0a2.086,2.086,0,0,0-.226-.013,2.375,2.375,0,0,0-.387.032c-1.965.347-3.5,2.761-3.5,5.5,0,2.433,1.239,4.433,2.806,4.613l.548.094c.038.008.075.011.11.019l.048.005.024,0a2.119,2.119,0,0,0,.226.013,2.443,2.443,0,0,0,.28-.019v9.18L263,246.761v-7.7c.519-.185.78-.4.79-.642h0V209.933c0-.527-1.282-1-3.812-1.4a61.4,61.4,0,0,0-8.591-.656c-5.58-.065-10.292.543-11.2,1.441a.512.512,0,0,0-.169.352v28.466l0,.008,0,.008h0c.013.347.505.632,1.535.892v10.424l-20.676,2.594-2.306-.293h-.032l-5.881.736a.124.124,0,0,0-.113.126V360.657l-45.892-3.54h-.021l-88.908,7.419a.131.131,0,0,0-.118.129v186.83H19.625v.258H988.97v-.258Zm-771.253,0H77.866V364.783l88.653-7.4Zm46.032,0H166.777V357.386l45.774,3.532Zm5.881,0h-5.626V252.742l5.626-.7Zm69.9-317.542a1.8,1.8,0,0,1-.46.059,1.43,1.43,0,0,1-.185-.011l-.237-.04v0c-1.331-.323-2.355-2.137-2.355-4.32,0-2.575,1.476-4.93,3.287-5.25a2.5,2.5,0,0,1,.344-.027,1.7,1.7,0,0,1,.2.011l.245.04c1.387.32,2.454,2.1,2.454,4.244C291.627,231.278,290.269,233.453,288.329,233.953Zm.309.177c1.922-.642,3.247-2.844,3.247-5.467a5.094,5.094,0,0,0-1.685-4.027c1.247.5,2.15,2.188,2.15,4.145,0,2.618-1.357,4.793-3.3,5.293A1.784,1.784,0,0,1,288.638,234.13Zm.976.024v9.306l-.478.062v-9.2A3.585,3.585,0,0,0,289.614,234.154Zm-49.333-24.488a.26.26,0,0,1,.094-.169c.734-.723,5.053-1.435,11.015-1.368a62.529,62.529,0,0,1,8.556.653c2.836.454,3.594.938,3.594,1.15V238.02c-1.218-.9-6.548-1.365-11.55-1.422-5.916-.067-10.636.4-11.709,1.15Zm0,28.477a.2.2,0,0,1,.07-.121c.742-.734,5.744-1.234,11.636-1.167,7.521.086,11.532.954,11.553,1.554-.008.056-.081.2-.535.374v-.414a.127.127,0,0,0-.129-.129h-1.07a.135.135,0,0,0-.11.059l-.575.919a50,50,0,0,1-5.984.452l-1.425-2.094v-.422a.129.129,0,0,0-.126-.129h-.731a.129.129,0,0,0-.129.129V239.7l-.892-.005a65.6,65.6,0,0,1-8.534-.573l-.454-.621a.124.124,0,0,0-.1-.054h-1.054a.127.127,0,0,0-.126.129v.2C240.412,238.477,240.291,238.216,240.281,238.143Zm22.466.355v8.282l-.5-.056V238.5Zm-4.529,7.244.672.97-1.382.161Zm-1.038,1.169-.575.067,1.18-1.865.274.4Zm-3.468-8.142v-.734l5.852,8.6-.384.046Zm.323.919c-.1,0-.212,0-.323,0v-.468Zm1.274.234a51.107,51.107,0,0,0,5.629-.417l-2.836,4.521Zm2.951,4.338,3.615-5.763h.11v.742l-3.457,5.416Zm-4.806-6.975v10.685l-.47.062V237.286Zm-.728,2.669v8.11l-.9.113V239.95h.008C252.132,239.953,252.428,239.955,252.726,239.955Zm-1.161-.011v8.266l-.5.062v-8.336Zm-4.812,5.363.218.3-2.9,3.545-.564.073Zm-3.618,3.959-.546.07v-9.685l4.008,5.441Zm3.994-3.449,1.986,2.7-4.672.586Zm-4.54-6.6V238.7h.086l7.121,9.728-.387.051Zm5.137,5.954,3.08-3.763v6.9l-.718.091Zm-.156-.215-.25-.344,3.486-4.2V241Zm-.409-.559-3.648-4.984a64.043,64.043,0,0,0,7.293.519v.075Zm-4.949-5.693h.118v.164Zm.118.6v10.067l-.516.065V238.7h.078ZM220.75,515.5v36h-2.059V252.04l2.064.261v15.814a.124.124,0,0,0,.043.094.118.118,0,0,0,.064.03v0l1.322.239v22.969l-1.325.145a.128.128,0,0,0-.116.126v21.085a.13.13,0,0,0,.043.1.127.127,0,0,0,.086.032h.013l.081-.008,1.164.228V336.18l-1.236.11a.131.131,0,0,0-.118.129v21.37a.129.129,0,0,0,.043.094.11.11,0,0,0,.07.03v0l1.231.169v23.063l-1.263.091a.131.131,0,0,0-.121.129v20.918a.127.127,0,0,0,.04.094.133.133,0,0,0,.065.032v0l1.29.237v23.031l-1.236.065a.13.13,0,0,0-.121.132V447a.12.12,0,0,0,.04.091.107.107,0,0,0,.065.032v0l1.29.245v23.122l-1.288.046a.131.131,0,0,0-.126.132v21.219a.132.132,0,0,0,.04.094.139.139,0,0,0,.089.038h0l1.282-.038v23.375l-1.29.019A.132.132,0,0,0,220.75,515.5ZM222.1,357.822l14.811-1.2-14.663,1.218Zm-.185,44.532,32.245-2.019-31.9,2.081Zm32.318,149.141H221.008V515.626l33.229-.519Zm0-37.393-2.984.048v-13.08l2.984-.067Zm0-13.357-31.3.715v-.586l31.3-.75Zm-3.242.331v13.08l-.333.005V501.084Zm-.591.013v13.074l-.194,0V501.095Zm-.452.011v13.072l-5.607.094V501.229Zm-5.868.134v13.034l-.32.005V501.243Zm-.578.013v13.031l-.218,0V501.253Zm-.476.011v13.029l-5.618.094v-13Zm-5.876.134v12.991l-.274.005V501.4Zm-.532.011V514.4l-.231,0V501.409Zm-.489.011V514.4l-5.545.091V501.541Zm-5.8.134V514.5l-.3,0V501.554Zm-.556.013v12.945l-.234.005V501.568Zm-.492.011v12.945l-5.731.094V501.7Zm-5.986.137v12.908l-.357.005V501.716Zm-.357-1.1v-7.731l.357-.008v7.731Zm.613-.013v-7.733l5.755-.134v7.731Zm6.013-.145v-7.731l.21,0v7.731Zm.465-.011v-7.731l.269-.008v7.733Zm.527-.011V492.7l5.561-.134V500.3Zm5.82-.142V492.56l.231-.005v7.731Zm.489-.011v-7.733l.29-.005v7.731Zm.548-.013v-7.731l5.618-.134v7.733Zm5.876-.14V492.4l.2-.005v7.733Zm.457-.011v-7.731l.339-.011v7.733Zm.6-.013V492.37l5.615-.134v7.731Zm5.873-.142v-7.733l.186,0v7.731Zm.444-.011v-7.733l.333-.008v7.731Zm3.575-.086-2.984.07V492.2l2.984-.07Zm0-7.991-31.431.758a.127.127,0,0,0-.126.129v22a.12.12,0,0,0,.04.091.122.122,0,0,0,.089.038h0l31.425-.524v.489l-31.81.5V491.974l31.81-.841Zm0-1-33.224.879V470.79l33.224-1.164Zm0-22.087-2.978.1V455.9l2.978-.113Zm0-13.26-31.283,1.167v-.522l31.283-1.336Zm-3.236.379V468.9l-.323.008V455.917Zm-.581.022v12.988l-.194.008V455.934Zm-.452.016v12.988l-5.623.193V456.154Zm-5.884.22v12.972l-.32.011V456.176Zm-.578.021v12.97l-.194.008v-12.97Zm-.452.016v12.97l-5.61.194V456.412Zm-5.868.22v12.951l-.3.011V456.434Zm-.559.021V469.4l-.2.005V456.45Zm-.462.013v12.953l-5.572.188V456.67Zm-5.828.22V469.61l-.288.011V456.689Zm-.543.019v12.932l-.25.008V456.705Zm-.505.019v12.932l-5.774.2V456.931Zm-6.029.226v12.913l-.306.011V456.952Zm-.306-1.027V448.1l.306-.013V455.9Zm.562-.021v-7.817l5.766-.263v7.833Zm6.024-.258V447.8l.255-.011v7.833Zm.511-.024v-7.835l.274-.014V455.6Zm.532-.024v-7.836l5.583-.255v7.854Zm5.841-.247v-7.857l.183-.008v7.857Zm.441-.019v-7.857l.323-.016v7.86Zm.581-.027v-7.86l5.61-.258v7.878Zm5.868-.25v-7.876l.18-.011v7.878Zm.441-.019v-7.878l.331-.016v7.878Zm.591-.024V447.12l5.639-.261v7.9Zm5.9-.253v-7.9l.177-.008v7.9Zm.435-.019v-7.9l.274-.013v7.9Zm3.559-.153-3.027.129v-7.9l3.027-.14Zm0-8.171-31.417,1.443a.132.132,0,0,0-.124.132V470a.133.133,0,0,0,.038.091.13.13,0,0,0,.091.035h.005l31.407-1.081v.323l-31.81,1.113v-23.1l31.81-1.46Zm0-.739-31.931,1.465-.288-.056,32.218-1.438Zm0-.285-33.2,1.481V426l33.2-1.753Zm0-21.95-2.973.164V410.633l2.973-.172Zm0-13.225-31.3,1.779v-.64l31.3-1.817Zm-3.231.441v12.962l-.328.019V410.662Zm-.586.032v12.964l-.21.008V410.689Zm-.468.027v12.959l-5.607.309V411.025Zm-5.868.333v12.945l-.331.019V411.057Zm-.591.035v12.945l-.228.011V411.087ZM243,411.1v12.945l-5.578.3V411.418Zm-5.833.333v12.929l-.288.016V411.447Zm-.546.03v12.929l-.2.011V411.474Zm-.46.027v12.929l-5.551.3V411.8Zm-5.806.331v12.913l-.306.019V411.837Zm-.564.032v12.913l-.239.011V411.866Zm-.5.03V424.79l-5.75.314v-12.9Zm-6,.339v12.9l-.352.019v-12.9Zm-.352-1.134v-7.669l.352-.024v7.672Zm.607-.035V403.38l5.739-.374v7.712Zm5.994-.349v-7.712l.255-.016v7.712Zm.513-.03v-7.717l.261-.016v7.72Zm.519-.03v-7.717l5.572-.363v7.758Zm5.83-.339v-7.76l.237-.013v7.76Zm.5-.03v-7.763l.271-.019v7.766Zm.527-.032v-7.766l5.6-.363v7.806Zm5.865-.339V402.1l.2-.013v7.806Zm.46-.027v-7.809l.325-.022v7.814Zm.583-.032v-7.817l5.618-.363v7.854Zm5.876-.341v-7.854l.226-.016v7.857Zm.484-.03v-7.857l.263-.016v7.857Zm3.543-.2-3.019.175v-7.86l3.019-.2Zm0-8.139L222.8,403.168a.129.129,0,0,0-.121.129v21.98a.12.12,0,0,0,.04.091.122.122,0,0,0,.089.038h.008l31.42-1.718v.3l-31.847,1.68v-23l31.847-2.081Zm0-1.059-33.243,2.078v-20.66l33.243-2.392Zm0-21.91-2.994.218V365.372l2.994-.223Zm0-13.271-31.283,2.322v-.61l31.283-2.25Zm-3.252.5V378.4l-.266.019v-13Zm-.524.038v13.007l-.228.016V365.445Zm-.487.038v13l-5.637.409v-13Zm-5.9.436v13l-.331.024V365.929Zm-.589.046v12.994l-.2.016V365.963Zm-.46.032v12.994l-5.607.409V366.4Zm-5.863.438V379.4l-.28.019V366.437Zm-.538.038v12.983l-.21.016V366.471Zm-.468.038v12.98l-5.54.4V366.9Zm-5.8.43v12.97l-.331.024v-12.97Zm-.586.043v12.97l-.25.022V366.982Zm-.508.038v12.967l-5.728.419V367.431Zm-5.983.443v12.962l-.331.022V367.471Zm-.331-1.1v-7.688l.331-.027v7.69Zm.586-.04v-7.7l5.766-.465v7.744Zm6.024-.435v-7.744l.212-.019v7.749Zm.468-.032v-7.752l.331-.027v7.755Zm.589-.043v-7.758l5.518-.444V365.4Zm5.776-.414v-7.806l.242-.021v7.811Zm.5-.038v-7.811l.269-.021v7.814Zm.524-.038v-7.817l5.6-.452V364.9Zm5.865-.419v-7.868l.2-.016v7.868Zm.46-.035v-7.87l.331-.03v7.879Zm.591-.04v-7.881l5.61-.452v7.93Zm5.868-.422v-7.932l.231-.016v7.932Zm.489-.035v-7.935l.29-.024v7.938Zm3.543-.255-2.994.215v-7.94l2.994-.242Zm0-8.225-31.423,2.537a.127.127,0,0,0-.118.129V380.57a.132.132,0,0,0,.04.094.136.136,0,0,0,.089.035h.011l31.4-2.279v.419l-31.858,2.29V358.09l31.858-2.645Zm0-.9-33.2,2.683V336.538l33.2-3.008Zm0-22.141-2.96.269V320.06l2.96-.277Zm0-13.3-31.267,2.943v-.556c1-.091,8.322-.766,15.644-1.443l10.838-1.005,3.57-.333c.433-.04.771-.075,1-.094.083-.008.156-.016.212-.024Zm-3.218.562v13.031l-.336.03V320.117Zm-.594.056V333.17l-.231.021V320.163Zm-.487.046v13.029l-5.61.5v-13Zm-5.868.551v13l-.306.03v-13Zm-.564.054v13l-.169.016v-13Zm-.427.04v13l-5.626.508V321.361Zm-5.887.554v12.978l-.32.027V321.415Zm-.575.054v12.975l-.253.024V321.464Zm-.511.048V334.46l-5.505.5V322.007Zm-5.763.543v12.948l-.333.032V322.06Zm-.591.054v12.951l-.183.016V322.1Zm-.441.043v12.945l-6.341.573V322.724Zm-6.341-.476v-7.793l.32-.032v7.8C223.153,321.633,223.045,321.644,222.97,321.652Zm.575-.054v-7.8l5.766-.564v7.83Zm6.024-.554v-7.833l.218-.021v7.833Zm.476-.046v-7.836l.3-.03v7.838Zm.556-.051v-7.841l5.508-.54v7.873C234.181,320.617,232.308,320.789,230.6,320.947Zm5.763-.532v-7.87l.253-.024v7.87Zm.508-.046v-7.876l.306-.032v7.879Zm.562-.054v-7.879l5.6-.548V319.8C241.213,319.966,239.316,320.144,237.434,320.316Zm5.855-.54v-7.911l.218-.022v7.911Zm.476-.046v-7.914l.306-.03V319.7C243.969,319.714,243.866,319.719,243.764,319.73Zm.564-.051V311.76l5.656-.554v7.946C248.38,319.3,246.433,319.485,244.329,319.679Zm5.914-.548v-7.948l.183-.019v7.948Zm.441-.043v-7.951l.269-.027v7.951C250.863,319.071,250.775,319.079,250.683,319.087Zm3.554-.336c-.336.035-1.433.137-3.027.285v-7.951l3.027-.3Zm0-8.22-31.409,3.08a.131.131,0,0,0-.116.129v22.044a.143.143,0,0,0,.04.1.136.136,0,0,0,.089.035l.011,0,31.385-2.83v.188l-31.847,2.884v-22.99l31.847-3.172Zm0-.8-31.971,3.183-.411-.081,32.382-3.242Zm0-.4L221,312.663V291.836l33.234-3.629Zm0-21.827-3.016.333V274.816l3.016-.347Zm0-13.3-31.3,3.586v-.6l31.3-3.411Zm-3.274.634v13.026l-.277.032V274.875Zm-.535.062v13.023l-.247.027V274.934Zm-.505.056v13.023l-5.626.618v-13Zm-5.884.675v12.994l-.274.032V275.671Zm-.532.062v12.991l-.2.021V275.722Zm-.452.051v12.991l-5.639.618V276.4Zm-5.9.675v12.962l-.29.032V276.461Zm-.546.062v12.962l-.263.03V276.52Zm-.521.062v12.956l-5.473.6V277.176Zm-5.731.656v12.929l-.339.038V277.246Zm-.6.067V290.2l-.218.024V277.3Zm-.476.056v12.924l-5.758.632v-12.9Zm-6.013.688v12.9l-.333.035V278.055Zm-.333-1.083v-7.76l.333-.04V276.9Zm.589-.067V269.1l5.758-.7v7.836Zm6.016-.653v-7.841l.218-.027v7.844Zm.478-.054v-7.846l.339-.04v7.852Zm.6-.065v-7.852l5.518-.669v7.919Zm5.776-.629v-7.924l.218-.024v7.924Zm.473-.051v-7.93l.314-.038v7.932Zm.573-.062v-7.938l5.613-.68v8Zm5.871-.642V266.7l.175-.022v8.013Zm.433-.046v-8.013l.277-.035v8.016Zm.535-.059v-8.021l5.7-.688v8.088Zm5.954-.648v-8.094l.2-.024v8.1Zm.454-.048v-8.1l.317-.04v8.1Zm3.551-.39-2.976.325v-8.107l2.976-.358Zm0-8.4-31.444,3.812a.128.128,0,0,0-.113.129v22.034a.133.133,0,0,0,.129.129h.013l31.415-3.451v.177l-31.794,3.473V268.486l31.794-3.825Zm0-.72-31.92,3.841-.559-.1,32.479-3.839Zm0-.355-33.224,3.924V252.3l33.224-4.166Zm0-16.679v.508l-.524.065v-7.986l.5-.005,3.411,4.938-1.352,2.132-1.925.223A.128.128,0,0,0,254.237,247.366Zm6.15,304.129h-5.892V247.482l5.892-.683Zm.113-304.97-.648.075-1.167-1.712,3.3-5.169v6.975l-1.454-.169Zm2.2,268.33v36.64h-2.054V246.8l2.024.231v16.077a.138.138,0,0,0,.046.1.15.15,0,0,0,.059.027v0l1.309.258v23.383l-1.314.142a.126.126,0,0,0-.113.129v21.4a.116.116,0,0,0,.043.094.1.1,0,0,0,.059.03v0l1.3.271v23.4l-1.258.113a.124.124,0,0,0-.116.126v21.77a.132.132,0,0,0,.04.1.148.148,0,0,0,.073.032h0l1.279.148v23.523l-1.277.091a.127.127,0,0,0-.121.129v21.254a.132.132,0,0,0,.04.094.135.135,0,0,0,.078.032l0,0,1.269.124v23.558l-1.242.067a.127.127,0,0,0-.121.129v21.488a.122.122,0,0,0,.038.091.113.113,0,0,0,.07.032v0l1.261.2v23.574l-1.277.048a.128.128,0,0,0-.126.126v21.647a.137.137,0,0,0,.04.094.126.126,0,0,0,.091.035h0l1.253-.03v23.754l-1.231.022A.126.126,0,0,0,262.7,514.855Zm34.761,36.64H262.954V514.984l34.506-.591Zm0-38.121-3.212.054v-13.3l3.212-.078Zm0-13.585-32.452.769v-.645l32.452-.715Zm-3.47.341v13.3l-.282.005v-13.3Zm-.54.011v13.3l-.193.005v-13.3Zm-.452.011v13.295l-5.914.094V500.291Zm-6.174.145v13.246l-.269.005V500.3Zm-.527.013v13.244l-.253,0V500.318Zm-.511.013v13.236L280,513.65V500.46Zm-6.045.142v13.19l-.323.005V500.474Zm-.581.016v13.182l-.218.005V500.487Zm-.476.008v13.182l-5.776.091V500.627Zm-6.035.142v13.136l-.3,0V500.641Zm-.559.013v13.131l-.269,0V500.654Zm-.527.013v13.125l-5.967.094V500.8Zm-6.225.148v13.074l-.331.008V500.813Zm-.331-1.153V491.77l.331-.008v7.884Zm.589-.013v-7.884l5.986-.142v7.895Zm6.244-.137v-7.9l.25-.005v7.9Zm.508-.013V491.6l.3-.008v7.9Zm.556-.011v-7.9l5.779-.142v7.914Zm6.037-.132v-7.913l.218-.005v7.913Zm.476-.011v-7.913l.323-.008v7.916Zm.581-.013V491.41l5.787-.14V499.2Zm6.045-.134v-7.924l.253-.008v7.927Zm.511-.011v-7.927l.269-.005v7.927Zm.53-.011v-7.93L293,491.1v7.94Zm6.172-.137v-7.943l.2-.005v7.943Zm.46-.008v-7.943l.274-.005v7.943Zm3.744-.083-3.212.073v-7.946l3.212-.078Zm0-8.209-32.584.788a.13.13,0,0,0-.126.126v22.375a.125.125,0,0,0,.04.091.116.116,0,0,0,.089.035h0l32.579-.511v.5l-33.146.57V490.945l33.146-.871Zm0-.911-34.53.906V469.333l34.53-1.22Zm0-22.544-3.174.107V454.076l3.174-.126Zm0-13.585-32.484,1.293v-.591l32.484-1.32Zm-3.433.4v13.3l-.339.013V454.1Zm-.6.019v13.306l-.223.008v-13.3Zm-.478.021v13.3l-5.836.2V454.358Zm-6.094.242v13.268l-.347.013V454.383Zm-.607.024v13.265l-.226.008V454.4Zm-.481.019v13.263l-5.779.2V454.643Zm-6.037.242v13.228l-.347.013V454.668Zm-.6.021V467.9l-.21.008V454.684Zm-.465.019v13.225l-5.779.2v-13.2Zm-6.035.239v13.193l-.323.013V454.947Zm-.581.024v13.19l-.247.008V454.969Zm-.505.021v13.187l-5.975.2V455.216Zm-6.234.247v13.155l-.333.011V455.237Zm-.333-1.1v-7.857l.333-.013v7.86Zm.591-.024v-7.86l6-.28v7.9Zm6.258-.253v-7.9l.223-.011v7.9Zm.481-.019v-7.9l.293-.013v7.9Zm.554-.024v-7.9l5.8-.269v7.938Zm6.059-.245v-7.938l.234-.011v7.938Zm.492-.019V445.6l.322-.011v7.94Zm.581-.024v-7.943l5.806-.271v7.978Zm6.061-.247V445.3l.247-.011v7.978Zm.508-.021v-7.981l.277-.011v7.981Zm.532-.022v-7.981l5.86-.274v8.016Zm6.115-.247v-8.018l.218-.011v8.021Zm.476-.019v-8.021l.344-.016v8.024Zm3.777-.156-3.174.132v-8.024l3.174-.148Zm0-8.3-32.619,1.513a.126.126,0,0,0-.124.126v22.378a.121.121,0,0,0,.04.091.127.127,0,0,0,.089.038h.005l32.608-1.124v.32l-33.13,1.172V445.472l33.13-1.452Zm0-.747-33.251,1.457-.116-.022,33.366-1.468Zm0-.29-34.5,1.519v-21.23l34.5-1.831Zm0-22.267-3.212.164V408.044l3.212-.185Zm0-13.6-32.436,1.879v-.688l32.436-1.866Zm-3.47.46v13.322l-.272.016V408.074Zm-.53.03v13.319l-.234.011V408.1Zm-.492.03v13.314l-5.857.3V408.458Zm-6.115.355v13.271l-.325.013V408.493Zm-.583.035v13.263l-.228.013V408.523Zm-.484.024V421.8l-5.828.293v-13.22Zm-6.086.355v13.217l-.29.013V408.9Zm-.548.032v13.214l-.183.008V408.931Zm-.438.024v13.212l-5.83.293V409.283Zm-6.088.355v13.166l-.29.014V409.316Zm-.548.03v13.163l-.255.013V409.342Zm-.513.03v13.16l-5.975.3V409.705Zm-6.233.363v13.112l-.306.016V409.738Zm-.306-1.191v-7.822l.306-.016v7.825Zm.564-.03v-7.825l5.986-.379v7.86Zm6.247-.36v-7.86l.242-.016v7.862Zm.5-.03v-7.862l.29-.016V408.1Zm.548-.03v-7.865l5.8-.368v7.9Zm6.059-.349v-7.9l.229-.016v7.9Zm.487-.03v-7.9l.271-.013v7.9Zm.53-.03v-7.9l5.828-.371v7.938Zm6.083-.352v-7.938l.228-.013v7.938Zm.487-.024v-7.943l.328-.019v7.943Zm.586-.035v-7.943l5.854-.371v7.978Zm6.112-.352v-7.981l.223-.013V406.9Zm.481-.03V398.9l.282-.016v7.981Zm3.752-.215-3.212.186v-7.983l3.212-.2Zm0-8.26-32.573,2.056a.127.127,0,0,0-.121.126v22.4a.126.126,0,0,0,.04.094.131.131,0,0,0,.089.035h.005l32.56-1.648v.207l-33.135,1.758V399.891l33.135-2.067Zm0-1.073L262.943,399.5v-21l34.517-2.478Zm-33.334-42.949,8.647-.712-8.561.723ZM297.46,375.07l-3.169.223V362.015l3.169-.239Zm0-13.556-32.452,2.449v-.608l32.452-2.328Zm-3.427.519v13.279l-.355.024V362.058Zm-.613.046v13.276l-.228.019V362.1Zm-.487.038v13.271l-5.838.414V362.558Zm-6.1.46v13.241l-.285.019V362.6Zm-.543.04v13.238l-.237.019V362.636Zm-.495.038v13.238l-5.811.406V363.093Zm-6.067.46v13.2l-.322.024v-13.2Zm-.583.043v13.2l-.231.016v-13.2Zm-.489.035v13.2l-5.779.409V363.628Zm-6.037.457v13.169l-.314.021V363.673Zm-.573.043v13.166l-.231.016V363.711Zm-.489.038v13.163l-5.994.419V364.181Zm-6.252.47v13.131l-.3.022V364.224Zm-.3-1.1v-7.94l.3-.024v7.943Zm.559-.038v-7.948l6.035-.465v7.978Zm6.29-.452v-7.983l.234-.016v7.981Zm.492-.038v-7.983l.255-.021v7.986Zm.513-.038v-7.986l5.79-.449v8.021Zm6.048-.433V354.08l.239-.019v8.021Zm.5-.038v-8.024l.309-.024v8.026Zm.567-.038V354l5.822-.452v8.061Zm6.078-.438v-8.061l.245-.019v8.064Zm.505-.035v-8.067l.277-.022v8.067Zm.535-.04v-8.069l5.846-.452v8.1Zm6.1-.438v-8.1l.22-.013v8.1Zm.478-.032v-8.107l.325-.027v8.11Zm3.782-.271-3.2.228v-8.11l3.2-.247Zm0-8.387-32.592,2.524a.131.131,0,0,0-.118.129v22.456a.137.137,0,0,0,.04.094.125.125,0,0,0,.089.032h.008l32.573-2.287v.427l-33.122,2.382v-23.5l33.122-2.787Zm0-1-34.514,2.836V332.707L297.46,329.6Zm0-22.464-3.2.288V316l3.2-.3Zm0-13.475L265,318.483v-.632l32.463-2.978Zm-3.454.581v13.2l-.3.027v-13.2Zm-.554.054v13.2l-.282.024v-13.2Zm-.543.048v13.2l-5.817.521V316.676Zm-6.075.57v13.177l-.306.027V316.727Zm-.564.054v13.171l-.239.022V316.776Zm-.5.046v13.171l-5.79.519V317.34Zm-6.048.57v13.142l-.314.03V317.394Zm-.573.051v13.144l-.2.016V317.437Zm-.465.043V330.6l-5.8.521V318Zm-6.061.567v13.117l-.331.03V318.058Zm-.589.056V331.2l-.188.016V318.1Zm-.446.04V331.24l-6,.538V318.69Zm-6.26.586V331.8l-.333.027V318.743ZM265,317.59v-7.868l.333-.035v7.873Zm.591-.051v-7.879l6-.6v7.927Zm6.26-.578v-7.927l.188-.019v7.93Zm.446-.04v-7.932l.277-.024V316.9Zm.532-.048v-7.935l5.833-.586v7.986Zm6.091-.556v-7.991l.212-.021v7.991Zm.47-.046v-7.991l.336-.032v7.994Zm.594-.054v-8l5.79-.581v8.048Zm6.048-.554v-8.051l.269-.024v8.048Zm.53-.051v-8.051l.271-.03v8.056Zm.53-.046v-8.059l5.881-.589v8.1Zm6.139-.565v-8.11l.2-.019v8.11Zm.457-.043v-8.112l.32-.03v8.112Zm3.774-.347-3.2.293V306.79l3.2-.32Zm0-8.4-32.605,3.266a.131.131,0,0,0-.116.129v22.367a.116.116,0,0,0,.043.094.113.113,0,0,0,.086.035h.008l32.584-2.922v.164l-33.14,2.984v-23.37l33.14-3.309Zm0-.823L264.2,308.712l-.562-.116,33.823-3.363Zm0-.414-34.546,3.435V287.261l34.546-3.752Zm0-22.2-3.172.349V269.9l3.172-.357Zm0-13.488-32.42,3.645v-.659l32.42-3.5Zm-3.43.645v13.22l-.331.038v-13.22Zm-.589.064v13.22l-.188.021v-13.22Zm-.446.051v13.217l-5.86.642V270.7Zm-6.121.688v13.2l-.382.043v-13.2Zm-.64.073V284l-.212.024v-13.2Zm-.47.054v13.2l-5.82.637V271.512Zm-6.078.683v13.177l-.266.032V271.572Zm-.524.059v13.177l-.234.024V271.625Zm-.492.054v13.177l-5.814.637V272.311Zm-6.072.685V285.5l-.272.032V272.37Zm-.53.056v13.158l-.207.021V272.421Zm-.465.054v13.155l-6.024.659V273.128Zm-6.285.707v13.136l-.28.032V273.187Zm-.28-1.148v-7.833l.28-.032v7.836Zm.54-.056v-7.841l6.024-.72V271.3Zm6.282-.68v-7.911l.22-.03v7.916Zm.481-.051V263.3l.271-.032v7.922Zm.532-.056v-7.927l5.8-.694v7.994Zm6.053-.656v-7.994l.2-.024v8Zm.457-.048v-8l.3-.035v8Zm.559-.062v-8.008l5.871-.7v8.075Zm6.129-.661v-8.08l.212-.024v8.083Zm.47-.051V261.6l.269-.03v8.086Zm.527-.056V261.54l5.924-.71v8.161Zm6.182-.667V260.8l.185-.022v8.163Zm.443-.048v-8.169l.333-.04v8.172Zm3.763-.406-3.172.341v-8.174l3.172-.382Zm0-8.473-32.565,3.9a.128.128,0,0,0-.113.126v22.407a.124.124,0,0,0,.043.094.129.129,0,0,0,.086.035h.013l32.536-3.564v.218l-33.119,3.594V263.5l33.119-3.914Zm0-.71-33.243,3.927-.594-.116,33.837-4.056Zm0-.505-34.53,4.14V247.03l34.53-4.282ZM303.8,551.495h-6.083V242.063l6.083-.763Zm43.578-355.462a2.037,2.037,0,0,1-.473.059c-.064,0-.129-.005-.191-.011l-.245-.04h0c-1.374-.331-2.43-2.2-2.43-4.454,0-2.653,1.524-5.08,3.392-5.408a1.98,1.98,0,0,1,.355-.032c.07,0,.14.008.21.013l.253.043c1.433.328,2.529,2.164,2.529,4.373C350.779,193.273,349.381,195.514,347.379,196.033Zm.293.18c1.992-.648,3.365-2.927,3.365-5.637a5.224,5.224,0,0,0-1.755-4.158c1.3.5,2.242,2.25,2.242,4.282,0,2.7-1.4,4.941-3.4,5.457A1.839,1.839,0,0,1,347.672,196.213Zm1,.03V205.7l-.511.07V196.41l.021,0A3.87,3.87,0,0,0,348.674,196.243Zm-11.182.954a3.668,3.668,0,0,1-2.314,3.742,4.115,4.115,0,0,0,2.056-3.828,3.837,3.837,0,0,0-.995-2.7A3.293,3.293,0,0,1,337.492,197.2Zm-1.712,3.785v6.5l-.5.067v-6.371A2.7,2.7,0,0,0,335.78,200.982Zm-1.417-9.677a2.445,2.445,0,0,1-.621.081,1.924,1.924,0,0,1-.25-.016l-.317-.051h0c-1.793-.43-3.166-2.863-3.166-5.787,0-3.443,1.978-6.594,4.408-7.018a2.741,2.741,0,0,1,.465-.04,2.47,2.47,0,0,1,.28.016l.323.051c1.865.43,3.3,2.814,3.3,5.685C338.782,187.725,336.965,190.636,334.363,191.305Zm.143.228c2.675-.737,4.537-3.726,4.537-7.309a6.536,6.536,0,0,0-2.462-5.484c1.82.516,3.164,2.882,3.164,5.645,0,3.5-1.817,6.411-4.419,7.08A2.423,2.423,0,0,1,334.506,191.534Zm1.279.059v2.355l-.013-.005-.019,0-.46-.075-.03-.005v-2.113c.043-.011.086-.019.126-.03C335.525,191.681,335.654,191.641,335.785,191.593Zm-1.137,9.263a1.3,1.3,0,0,1-.317.04,1.144,1.144,0,0,1-.137-.008l-.132-.022c-.933-.215-1.677-1.527-1.677-3.054,0-1.82,1.038-3.484,2.317-3.709a1.415,1.415,0,0,1,.239-.021,1.127,1.127,0,0,1,.137.011l.177.027c.973.226,1.718,1.481,1.718,2.992C336.973,198.963,336.019,200.5,334.648,200.856Zm-17,350.639h-13.6V241.3l13.6,1.825Zm36.535,0H317.91v-99.04L354.187,451Zm0-100.752L317.91,452.2V371.727l36.277-2.688Zm0-81.965-36.277,2.691V290.957l36.277-3.8Zm0-81.879-36.277,3.8V243.011a.13.13,0,0,0-.113-.129l-6.207-.833V211.078l42.6-5.884Zm41.524,264.6H354.445V506.834l41.266.871Zm0-44.048-41.266-.871v-45.2l41.266,1.68Zm0-44.653-41.266-1.677V415.942l41.266,2.468Zm0-44.642-41.266-2.465V370.458l41.266,3.271Zm0-44.677L354.445,370.2V325.022l41.266,4.078Zm0-44.634-41.266-4.078V279.5l41.266,4.935Zm0-44.661-41.266-4.932V234.068l41.266,5.7ZM404.4,551.495H395.97V507.71l8.427.177Zm0-43.863-8.427-.18V463.065l8.427.341Zm0-44.484-8.427-.344V418.425l8.427.5Zm0-44.478-8.427-.5V373.751l8.427.667Zm0-44.511-8.427-.669V329.127l8.427.831Zm0-44.462-8.427-.831v-44.4l8.427,1.008Zm0-44.481-8.427-1.008V239.8l8.427,1.164Zm2.919,266.279h-2.661v-43.6l2.661.059Zm0-43.8-2.661-.054V463.414l2.661.11Zm0-44.425-2.661-.108V418.944l2.661.159Zm0-44.422-2.661-.159V374.439l2.661.212Zm0-44.454-2.661-.21v-44.2l2.661.263Zm0-44.4-2.661-.263V285.506l2.661.32Zm0-44.422-2.661-.32V241l2.661.368Zm0-44.454-52.87-7.3V205.172l52.87,8Zm272.013-109.99v16.512l-39.105-7.986V122.812Zm-40.04,369.934V489.679l35.124,1.064v11.244l-34.342-.946Zm.656.245v16.838l-41.307.621v-16.62Zm.258,0,39.119,1.081-.078,16.5-39.041-.745Zm-1.046-11.886-23.289.5,24.189-.581,35.447,1.124-.927.035Zm.788-17.174v16.835l-40.9.978-.409-.013v-16.6Zm-.656-.237V460.648l35.124,1.57v11.147l-34.345-1.384Zm.914,17.072V472.244l39.119,1.575-.078,16.5Zm-1.046-28.692-36.412,1.161-.624-.03,37.936-1.312,36.581,1.661-2.059.1Zm.788-17.268V459.95l-41.032,1.422-.274-.013v-16.6Zm-.656-.231V431.72l35.124,2.005v10.98l-34.347-1.852Zm.914,17.069V443.12l39.119,2.11-.078,16.5Zm-1.046-28.5-36.414,1.505-1.817-.137,39.135-1.726,36.963,2.261-2.449.118Zm.788-17.445v16.832l-41.167,1.814-.14-.011v-16.6Zm-.656-.226V402.6l35.119,2.629v10.9l-34.326-2.392h-.016Zm.914,17.061V414.012l39.119,2.723-.078,16.5Zm-1.035-28.506h-.013l-36.412,2-2.255-.21,39.573-2.15,37.49,2.809-2.976.2Zm33.243-25.106-30.463-2.852a.13.13,0,0,0-.1.035.137.137,0,0,0-.04.094v10.059a.128.128,0,0,0,.118.126l25.283,2.2-27.122-2.266h-.019l-.777.046v-11l35.108,2.984v10.83l-1.949-.161.038-.022a.129.129,0,0,0,.043-.094v-9.849A.131.131,0,0,0,672.409,377.232Zm-.142.247v9.588l-.4-.035v-9.591Zm-.653-.064v9.6l-4.672-.409v-9.626Zm-4.93-.46v9.628l-.352-.03v-9.631Zm-.613-.056v9.631l-.438-.038v-9.637Zm-.7-.065v9.634l-6.626-.573v-9.682Zm-6.884-.648v9.688l-.349-.032v-9.688Zm-.607-.054v9.688l-.443-.038v-9.693Zm-.7-.067v9.693l-6.822-.591v-9.739Zm-7.08-.661v9.739l-.374-.03v-9.744Zm-.634-.059v9.744l-.46-.04V375.3Zm-.718-.07v9.752l-6.688-.578v-9.8Zm-8.8,9.615v16.835l-41.215,2.239-.091-.008V387.349Zm.258,16.838V384.892l39.119,3.263-.078,16.5ZM639.17,373.4h-.016l-36.412,2.258-2.486-.253,39.8-2.578,37.656,3.373-3.142.21Zm.774-17.657v16.832L598.7,375.251l-.067-.008V358.631Zm-.656-.212V344.57l35.124,3.543V358.84l-34.326-3.363h-.024Zm.914,17.05V355.749l39.119,3.833-.078,16.5Zm-1.03-28.283h-.022l-36.409,2.742-2.6-.263,39.917-3.051,37.85,3.895-3.336.247Zm.771-17.655v16.832l-41.253,3.153-.054-.005V330.014Zm-14.276.661-8.86.7v-9.567l8.86-.728Zm.261-.021v-9.774l.535-.043v9.774Zm.793-.065v-9.7l.285.065V327.2Zm.546-.04V317.62l9.524-.8v9.615Zm45.145-7.287-30.463-3.339a.132.132,0,0,0-.1.03.138.138,0,0,0-.04.1v9.886l-1.718-.191h-.024l-.8.065V315.612l35.154,4.021V330.2l-1.884-.21V320.02A.131.131,0,0,0,672.412,319.891Zm-.145.314v9.752l-.417-.048v-9.551Zm-4.543-.57,4.113.452-.1.04Zm3.868.734v9.513l-4.642-.519V319.8Zm-4.9-.847v9.814l-.358-.04v-9.811Zm-.616-.008v9.752l-.452-.048v-9.564Zm-5.6-.672,5.091.559-.108.032Zm4.884.841v9.5l-6.6-.734V318.9Zm-6.857-1.059v9.8l-.358-.04v-9.8Zm-.616-.021v9.752l-.481-.051v-9.588Zm-.737.116v9.556l-6.822-.758v-9.594Zm-7.08-1.016v9.784l-.358-.04v-9.784Zm-.616-.03v9.747l-.438-.051v-9.615Zm-.694.108v9.559l-6.709-.745v-9.6Zm-8.567,25.7V326.649L679.32,331l-.078,16.5Zm-1.03-28.135h-.022L602.745,318.4l-2.857-.36,40.172-3.419,37.968,4.519-3.454.255Zm.771-17.808V314.37l-41.282,3.51-.024,0V301.26Zm-34.39,2.841V290.6l.3.107v9.642Zm.481-9.887,9.22-.868v.048Zm9.22-.564v9.577l-9.147.825v-9.585Zm.258,9.553V289.6l.476-.043v9.881Zm.734-.065v-9.833l.309.094v9.709Zm.567-.054v-9.647l8.849-.868v9.717Zm9.11-.823v-9.921l.519-.048v9.924Zm.78-.07v-9.876l.3.083v9.766Zm.559-.048v-9.714l9.529-.914v9.768Zm45.153-6.973-30.466-3.93a.141.141,0,0,0-.1.032.13.13,0,0,0-.043.1v9.835l-1.715-.218h-.03l-.8.073V286.533l35.154,4.6v10.5l-1.884-.239v-9.819A.128.128,0,0,0,672.415,291.449Zm-.148.29v9.626l-.409-.051v-9.483Zm-.669.091v9.448l-4.68-.6v-9.467Zm-4.941-.863v9.682l-.3-.038v-9.685Zm-.559-.027v9.636l-.47-.059v-9.475Zm-.728.116v9.43l-6.607-.841v-9.459Zm-6.865-1.14v9.7l-.36-.048v-9.7Zm-.618-.043v9.661l-.462-.062v-9.526Zm-.718.07v9.5l-6.828-.874v-9.516Zm-7.088-1.116v9.709l-.36-.046v-9.706Zm-.615-.043v9.674L649,298.4V288.85Zm-.721.07v9.513l-6.685-.849v-9.54Zm-8.542,25.52V297.543l39.119,4.981-.078,16.5Zm-1.027-28.114h-.027l-36.406,3.478-2.925-.371,40.242-3.892,38.224,5.086-3.709.333Zm.769-17.864v16.832l-41.29,3.994-.016,0V272.6Zm-34.39,3.244v-9.72l.3.07v9.618Zm.554-.059v-9.569l9.094-.935v9.58Zm9.352-.952v-9.79l.527-.054v9.79Zm.788-.081V260.8l.363.073v9.642Zm.624-.062v-9.6l8.822-.9v9.6Zm9.077-.925v-9.817l.511-.054v9.817Zm.769-.078v-9.771l.282.07v9.671Zm.54-.056v-9.6l9.534-1.013v9.647Zm45.159-6.526-30.463-4.357a.135.135,0,0,0-.1.03.13.13,0,0,0-.043.1v9.7l-1.712-.242h-.032l-.8.081V257.543l35.146,5.075v10.33l-1.876-.263v-9.653A.132.132,0,0,0,672.415,262.9Zm-.148.3v9.443l-.409-.059v-9.257Zm-5.314-.8v-.022l4.857.7-.067.022Zm4.648.935v9.217l-4.648-.653v-9.241Zm-4.9-.992v9.518l-.344-.048V262.3Zm-.6-.035v9.47l-.462-.065v-9.3Zm-3.459-.546,2.892.414-.051.011Zm2.739.672v9.241l-6.61-.927v-9.306Zm-6.865-1.263v9.54l-.309-.043v-9.54Zm-.564-.046v9.507l-.476-.067v-9.376Zm-.736.073v9.333l-6.86-.968v-9.381Zm-7.121-1.231v9.561l-.347-.048v-9.564Zm-.6-.056v9.532l-.47-.064v-9.413Zm-.728.056v9.373l-6.7-.941v-9.381ZM640.2,285.235V268.4l39.119,5.5v16.539Zm-1.024-27.963-.03,0-36.4,3.828-3.086-.457,40.4-4.279L678.393,262l-3.817.379Zm.766-17.988V256.11l-41.307,4.379h0v-16.62Zm-34.39,3.559V233.19l.293.107v9.51Zm.465-9.757-.032-.011,9.252-1.048v.021Zm9.22-.777v9.459l-9.131,1.011v-9.443Zm.258,9.43V232l.495-.056v9.739Zm.753-.083V231.98l.3.108v9.532Zm.457-9.784-.024-.008,6.279-.71Zm8.991-.771v9.5l-8.895.989V232.12Zm.255,9.478v-9.763l.505-.056v9.763Zm.763-.086v-9.706l.271.081v9.6Zm.53-.059V230.91l9.545-1.083v9.545Zm45.172-6.045-30.466-4.871a.125.125,0,0,0-.1.03.13.13,0,0,0-.043.1v9.634l-1.712-.263a.142.142,0,0,0-.035,0l-.769.086V228.542l35.095,5.6v10.179l-1.855-.288v-9.516A.133.133,0,0,0,672.417,234.386Zm-.15.3v9.306l-.411-.064V234.8Zm-3.65-.645,3.177.508-.021.008Zm2.981.747v9.1l-4.661-.723v-9.139Zm-4.919-1.056v9.395l-.347-.054v-9.395Zm-.607-.043v9.344l-.454-.07V233.8Zm-7.306-1.215v-.008l6.779,1.086-.059.013Zm6.6,1.331v9.118l-6.6-1.019v-9.166Zm-6.852-1.379v9.438l-.336-.051v-9.44Zm-.591-.046v9.389l-.492-.075v-9.206Zm-7.594-1.245v-.019l7.026,1.124-.04.008Zm6.844,1.352v9.169l-6.844-1.062v-9.2Zm-7.1-1.411v9.481l-.328-.051V231.02Zm-.586-.04v9.43l-.489-.075v-9.239Zm-7.223-1.21,6.693,1.073-.1.021Zm6.475,1.339v9.185l-6.674-1.032v-9.263ZM640.2,256.118v-16.83l39.119,6.053v16.539Zm-1.024-27.856a.067.067,0,0,0-.032,0l-36.4,4.223-3.223-.554,40.538-4.715,38.46,6.223-3.946.468Zm.766-18.122v16.83l-41.307,4.806v-16.62Zm-34.39,3.914v-9.518l.331.116-.027,9.368Zm.47-9.626-.04-.016,9.233-1.145v.022Zm9.193-.879v9.333l-9.1,1.1.024-9.311Zm.258,9.3v-9.615l.529-.065v9.615Zm.787-.094v-9.548l.285.1v9.416Zm.457-9.666-.022-.008,8.97-1.113v.013Zm8.948-.847v9.37l-8.862,1.075v-9.349Zm.261,9.338v-9.645l.535-.065v9.645Zm.793-.094v-9.572l.279.116v9.421Zm.495-9.647-.121-.048,9.7-1.2v.064Zm9.575-.93v9.354l-9.529,1.156v-9.325Zm35.627,4.822L649.6,201.8h0l-7.647-1.317a.133.133,0,0,0-.11.027.141.141,0,0,0-.043.1v9.545l-1.71-.288a.19.19,0,0,0-.038,0l-.769.094V199.52l35.119,6.134v10.021l-1.879-.317v-9.5A.137.137,0,0,0,672.417,205.732Zm-5.478-.589v-.091l4.994.86-.191.078Zm4.685,1.089V215.2l-4.685-.793V205.4Zm.255-.019.387-.161v9.263l-.387-.067Zm-5.2-1.207v9.362l-.358-.059v-9.365Zm-7.927-1.288v-.078l6.962,1.2-.242.094Zm6.623,1.46v8.97l-6.623-1.121v-9.045Zm.258-.03.43-.169v9.284l-.43-.073Zm-7.139-1.554v9.387l-.347-.056v-9.389Zm-8.153-1.314v-.089l7.166,1.234-.226.078Zm6.841,1.468v9.013l-6.841-1.159v-9.061Zm.258-.027.446-.156v9.314l-.446-.075Zm-7.36-1.575v9.413l-.371-.062v-9.413Zm-8.026-1.328v-.056l7.008,1.21-.245.083Zm6.7,1.489v9.026l-6.7-1.134v-9.12Zm.258-.048.441-.151v9.344l-.441-.073ZM640.2,226.978v-16.83l39.119,6.621v16.537Zm-1.021-27.74h-.035l-36.4,4.572-3.3-.613,40.608-5.091,38.514,6.841-3.994.473Zm.763-18.206v16.827l-41.307,5.18v-16.62Zm-34.39,4.226v-9.4l.293.118v9.244Zm.47-9.491-.094-.038,9.276-1.231v.048Zm9.182-.96V184l-9.1,1.188v-9.169Zm.258,9.155v-9.5l.516-.07v9.5Zm.774-.1v-9.435l.3.1v9.292Zm.487-9.542-.057-.019,9-1.2h0Zm8.948-.954v9.266l-8.876,1.159v-9.22Zm.258,9.233V173.07l.516-.07v9.532Zm.777-.1v-9.473l.285.081v9.357Zm.543-.07V173.15l9.54-1.282v9.314Zm45.169-5.153-6.188-1.169h0l-16.639-3.142h0l-7.634-1.441a.127.127,0,0,0-.153.126v9.424l-1.707-.315a.1.1,0,0,0-.04,0l-.785.1V170.548l35.135,6.572v9.989l-1.879-.347V177.4A.13.13,0,0,0,672.42,177.274Zm-5.494-.675v-.1l4.97.941-.148.051Zm4.712,1.129v8.87l-4.712-.874V176.86Zm.255-.016.374-.132v9.134l-.374-.07Zm-5.223-1.261v9.225l-.333-.062v-9.228Zm-7.9-1.435v-.059l6.881,1.3-.175.051Zm6.594,1.532v8.887l-6.594-1.22v-8.932Zm.258-.013.457-.132v9.166l-.457-.086Zm-7.107-1.626v9.26l-.363-.07v-9.258Zm-8.174-1.47v-.073l7.137,1.349-.18.054Zm6.862,1.575v8.911l-6.862-1.271V173.7Zm.261-.024.43-.129v9.193l-.43-.081Zm-7.381-1.669v9.287l-.382-.073v-9.287Zm-8.024-1.457V171.8l7,1.32-.215.073Zm6.666,1.572v8.919l-6.666-1.234v-9Zm.258-.013.462-.153v9.22l-.462-.086ZM640.2,197.869V181.04l39.119,7.241v16.537Zm-1.019-27.6a.1.1,0,0,0-.04,0l-36.4,4.938-3.33-.624,40.643-5.572,38.586,7.336-4.067.543Zm.761-18.332v16.83l-41.307,5.666v-16.62Zm-34.39,4.631v-9.346l.309.094v9.206Zm9.653-10.524v9.15l-9.085,1.293v-9.153Zm-8.8.989,8.8-1.271v.022Zm9.056,8.126v-9.435l.551-.078v9.432Zm.812-.116v-9.378l.282.078V155Zm9.421-10.521v9.18l-8.881,1.263v-9.2Zm-3.75.266,3.75-.54v.013Zm4.005,8.879v-9.459l.521-.073v9.456Zm.777-.113v-9.405l.269.065v9.3Zm.527-.073V144.26l9.534-1.366v9.231Zm45.164-4.7-6.2-1.271h0l-8.172-1.675h0l-16.09-3.3a.139.139,0,0,0-.107.027.129.129,0,0,0-.046.1V152l-1.707-.336a.1.1,0,0,0-.04,0l-.78.11V141.523l35.13,7.088v9.83l-1.879-.371V148.91A.129.129,0,0,0,672.42,148.783Zm-.153.3v8.94l-.4-.078v-8.757Zm-5.325-1.1v-.054l4.9,1-.091.024Zm4.672,1.21v8.7l-4.672-.919V148.24Zm-4.927-1.317v9.045l-.36-.07V147.8Zm-.618-.065v8.989l-.436-.086v-8.792Zm-7.309-1.5v-.059l6.865,1.406-.11.03Zm6.615,1.61v8.741l-6.615-1.306v-8.782Zm-6.87-1.72v9.1l-.355-.07v-9.11Zm-.613-.067v9.051l-.443-.089v-8.849Zm-7.575-1.505v-.108l7.123,1.462-.153.038Zm6.876,1.637v8.782l-6.876-1.36v-8.8Zm-7.137-1.8v9.166l-.293-.059V144.4Zm-8-1.543v-.1l7.037,1.441-.215.062Zm6.685,1.642v8.809l-6.685-1.32v-8.868Zm.258,0,.5-.145v9.1l-.5-.1Zm-8.8,24.216V151.945l39.119,7.731v16.537Zm-1.03-27.539a.1.1,0,0,0-.04,0L600.9,146.87l-2.825-.653v-.175l42.019-6.158,38.61,7.887-4.185.6Zm-78.619,357.6v-.594l26.313.71h0a.117.117,0,0,0,.089-.038.116.116,0,0,0,.04-.091V488.453a.13.13,0,0,0-.126-.129l-26.318-.871v-.624l28.017.9v11.741l-26.681-.68Zm1.215.215v17.631l-1.215-.005V499.1Zm-1.215-1.064V487.714l6.876.223v10.239Zm7.137.191V487.948l.435.013V498.2Zm.691.019V487.969l.4.013v10.231Zm.659.019V487.991l7.508.25v10.182Zm7.763.207V488.249l.406.016v10.174Zm.664.019V488.273l.457.013v10.171Zm.715.019V488.295l7.852.261v10.123Zm8.11.22V488.563l.449.016v10.115Zm.556-29.606h.005a.146.146,0,0,0,.091-.038.13.13,0,0,0,.038-.094v-10.37a.128.128,0,0,0-.124-.129l-26.3-1.183v-.7l27.993,1.309v11.612L561.9,468.441h-.013l-1.333.1V468Zm-26.294-1.339V457.528l6.852.307v10.19Zm7.11.293v-10.19l.446.022v10.185Zm.7.027V457.877l.384.019v10.182Zm.642.027V457.909l7.518.336V468.4Zm7.774.32V458.256l.425.016v10.153Zm.68.027v-10.15l.435.019v10.147Zm.693.027V458.318l7.884.352v10.118Zm8.139.333V458.681l.43.022v10.112Zm.535-29.584h.005a.136.136,0,0,0,.089-.035.134.134,0,0,0,.043-.094v-10.4a.13.13,0,0,0-.124-.129L560.554,427v-.71L588.611,428v11.5L561.9,438.077l-.016,0-1.333.094v-.414ZM560.554,437.5V427.258l6.8.4v10.22Zm7.053.387V427.675l.495.03v10.214Zm.755.043V427.718l.409.024v10.214Zm.667.038V427.758l7.481.441v10.185Zm7.739.425V428.215l.462.027v10.182Zm.72.038v-10.18l.384.024v10.177Zm.64.038V428.3l7.916.468v10.145Zm8.172.452V428.777l.409.024v10.145Zm.532-29.608h.005a.124.124,0,0,0,.089-.035.128.128,0,0,0,.043-.091V398.857a.131.131,0,0,0-.121-.129l-26.294-1.943v-.707l28.031,2.1v11.376l-26.681-1.8h-.016l-1.333.1v-.333Zm-26.278-2.054v-10.22l6.879.511v10.179Zm7.137.489V397.569l.4.032v10.174Zm.661.043V397.62l.417.032v10.171Zm.677.046V397.671l7.489.554v10.126Zm7.744.53V398.241l.435.032V408.4Zm.691.048V398.295l.468.035v10.118Zm.726.048v-10.12l7.844.581V409Zm8.1.554V398.945l.417.032v10.072Zm.562-129.8-26.3-3.516v-.626l28.031,3.7v10.9l-1.616-.207V279.343A.13.13,0,0,0,586.853,279.216Zm-.145.274v9.943l-.438-.056v-9.83Zm-.7.059v9.8l-7.827-1v-9.873Zm-8.088-1.269v10.032l-.443-.056V278.222Zm-.7-.059v10l-.452-.059v-9.884Zm-.71.062v9.849l-7.5-.957v-9.895Zm-7.755-1.226V287.14l-.382-.048V277.007Zm-.637-.04V287.06l-.484-.062v-9.881Zm-.742.113v9.835l-5.467-.7h-.035l-1.325.172v-10.26Zm-5.612,9.411v17.628l-1.215.108V286.7Zm.113,17.878,34.81,4.129-7.844.691v-.712a.13.13,0,0,0-.116-.129l-28.178-3.336v-.527Zm26.708,4.22v10.986l-1.575-.177V309.2a.124.124,0,0,0-.113-.126l-26.348-3.1v-.648Zm-1.833.71v10.069l-.508-.056v-9.924Zm-.766.086v9.9l-7.833-.884V308.5Zm-8.091-1.164v10.147l-.43-.048V308.22Zm-.685-.051v10.12l-.435-.051v-10.01Zm-.693.054v9.986l-7.508-.847v-10Zm-7.766-1.081v10.19l-.387-.043V307.15Zm-.648-.032v10.15l-.454-.051V307.247Zm-.715.083v9.986l-5.481-.621-.032,0-1.325.169V306.416Zm-5.623,9.642v17.628l-1.215.1v-17.58Zm.113,17.878,34.648,3.6-7.685.61v-.591a.131.131,0,0,0-.115-.129l-28.176-2.943v-.43Zm26.705,3.734v11.1l-1.618-.159V339.11a.128.128,0,0,0-.115-.126l-26.3-2.793v-.621Zm-1.879.731v10.182l-.4-.038V339.186Zm-.659-.07v10.19l-7.908-.771v-10.26Zm-8.166-.866v10.26l-.419-.043V338.247Zm-.675-.075v10.271l-.406-.043V338.178Zm-.661-.067v10.271l-7.513-.731V337.352Zm-7.774-.828v10.341l-.409-.04V337.28Zm-.667-.07V347.6l-.425-.043V337.207Zm-.683-.075v10.354l-5.516-.538-.03,0-1.325.167V336.449Zm-5.656,10.093V364.9l-1.215.1V347.424Zm.116,17.878,34.417,3.043-7.454.513v-.5a.133.133,0,0,0-.118-.126l-28.176-2.521v-.3Zm26.705,3.175V379.6l-1.742-.145a.129.129,0,0,0,.078-.035.12.12,0,0,0,.043-.094V368.977a.129.129,0,0,0-.118-.129l-26.3-2.339v-.691Zm-1.882.771v10.091l-.427-.038V369.055Zm-.685-.065v10.1l-7.857-.664V368.332Zm-8.115-.718v10.128l-.43-.038V368.272Zm-.688-.065v10.136l-.441-.038V368.211Zm-.7-.059v10.134l-7.494-.629V367.523Zm-7.752-.691V377.67l-.406-.035V367.461Zm-.664-.059v10.174l-.435-.035V367.4Zm-.693-.062v10.179l-6.86-.581V366.767ZM583.8,379.2l-21.9-1.825h-.019l-1.333.1v-.231Zm-22.034-1.559v17.631l-1.215.038V377.729Zm.113,17.886,34.054,2.532-7.094.387v-.39a.133.133,0,0,0-.121-.129l-28.168-2.107v-.253Zm-.113,12.5v17.631l-1.215.038V408.106Zm.107,17.883,33.778,1.973-6.785.368v-.366a.129.129,0,0,0-.121-.129l-28.195-1.718v-.086Zm-.107,12.44v17.633l-1.215.038V438.432Zm.11,17.886,32.987,1.468-6.061.237v-.185a.128.128,0,0,0-.124-.129L560.554,456.3v-.032Zm26.826,31.251-27.181-.876.358-.011,31.358.946-4.411.108v-.04A.129.129,0,0,0,588.705,487.48Zm-26.937-18.773v17.631l-1.215.038V468.8Zm.255,30.348,35.791.911v17.311l-35.791-.583Zm34.726.626-7.922-.2V487.907l7.922-.2Zm-34.726-13.343V468.7l35.791,1.4v17.313ZM596.745,469.8l-7.94-.309v-11.3l7.94-.312Zm-34.721-13.824V438.341l35.791,1.914v17.313Zm34.71-16.042-7.865-.419V428.5l7.865-.43Zm-34.71-14.281V408.017l35.791,2.411v17.313ZM596.713,410.1l-7.87-.532V398.7l7.87-.427Zm-34.689-14.822V377.64l35.791,2.984v17.313Zm34.678-15-7.854-.656V368.966l7.854-.543ZM562.024,364.9V347.266l35.791,3.489v17.311Zm34.7-14.513-7.881-.766V339.231l7.881-.624Zm-34.7-15.873V316.883l35.791,4.045v17.311Zm34.7-13.972-7.879-.89V309.5l7.879-.7Zm-34.7-16.367V286.541l35.791,4.57v17.311ZM588.842,289.7v-9.946l7.889-.769v11.722Zm0-10.206v-.841a.13.13,0,0,0-.11-.129l-28.178-3.715v-.645l1.328-.113,34.939,4.669Zm-1.995-30.114-26.294-3.93v-.65l28.025,4.121v10.782l-1.624-.231v-9.962A.13.13,0,0,0,586.848,249.385Zm-.151.277v9.776l-.444-.064v-9.655Zm-.7.051v9.626l-7.83-1.118v-9.7Zm-8.088-1.4v9.873l-.427-.059v-9.876Zm-.683-.073v9.849l-.435-.062v-9.747Zm-.691.032v9.72l-7.486-1.07V247.2Zm-7.747-1.323v9.938l-.417-.062v-9.938Zm-.675-.062v9.9l-.438-.062v-9.765Zm-.7.075v9.728l-5.5-.785a.077.077,0,0,0-.035,0l-1.325.169V245.939Zm-5.645,9.217v17.628l-1.215.1v-17.58Zm.255,17.636V256.18l35.791,5.1V278.6Zm26.813-14.069v-9.7l7.889-.9v11.722Zm0-9.964v-.968a.129.129,0,0,0-.11-.126l-28.173-4.142v-.758l1.325-.083,35.065,5.158Zm-1.968-30.315-26.316-4.287v-.626l28.022,4.57v10.593l-1.6-.25v-9.873A.129.129,0,0,0,586.869,219.465Zm-.148.277v9.682l-.468-.073v-9.542ZM586,219.8v9.51l-7.838-1.223v-9.556Zm-8.1-1.535v9.782l-.425-.067V218.2Zm-.68-.07v9.744l-.449-.07v-9.61Zm-.707.07v9.564l-7.5-1.169v-9.615Zm-7.755-1.489v9.843l-.39-.062v-9.846Zm-.648-.059v9.8l-.435-.067v-9.645Zm-.586-.142-.04.008-6.93-1.14v-.005Zm-.11.258v9.577l-5.5-.86h-.035l-1.328.14V215.7Zm-5.645,8.989V243.45l-1.215.078V225.951Zm.255,17.641V225.83l35.791,5.588v17.311Zm34.7-12.475-7.889-1.234v-9.521l7.889-.9Zm-7.889-11.015v-.962a.13.13,0,0,0-.11-.126l-28.173-4.594v-.715l1.331-.2L597,219.048Zm-1.978-30.42-26.3-4.634v-.6l28.028,5V199.77l-1.613-.274v-9.814A.133.133,0,0,0,586.858,189.552Zm-.151.288v9.612l-.452-.078v-9.432Zm-8.456-1.543,7.93,1.4-.043.008ZM586,189.942v9.386l-7.83-1.336v-9.448Zm-8.088-1.7v9.712l-.392-.067v-9.714Zm-.65-.07v9.671l-.484-.086V188.26Zm-8.22-1.486v-.008l7.621,1.344-.043.008Zm7.475,1.589v9.44l-7.475-1.274v-9.494Zm-7.733-1.642v9.766l-.409-.073v-9.766Zm-.669-.067v9.717l-.441-.075v-9.545Zm-.546-.145-.059.011-6.951-1.226v-.019Zm-.156.255v9.486l-5.492-.938a.231.231,0,0,0-.043,0l-1.32.255V185.464Zm-5.639,8.833v17.625l-1.215.183V195.738Zm.255,17.631V195.5l35.791,6.107v17.311Zm34.7-11.972-7.884-1.347V190.5l7.884-1Zm-7.884-10.927v-1.024a.132.132,0,0,0-.11-.126l-28.178-5.024v-.855l1.331-.2,35.2,6.188Zm-1.989-30.541-26.3-5.045v-.594l28.009,5.352v10.37l-1.6-.3v-9.658A.132.132,0,0,0,586.853,159.694Zm-.153.282v9.456l-.425-.078v-9.3Zm-.685.073v9.257l-7.836-1.449v-9.3Zm-7.836-1.753v0l2.032.39Zm-.261-.054v9.567l-.443-.081v-9.572Zm-.7-.081v9.518l-.443-.081v-9.338Zm-8.2-1.594v-.032l7.7,1.476-.075.019Zm7.5,1.7v9.282l-7.5-1.384v-9.338Zm-7.76-1.785v9.634l-.4-.075v-9.634Zm-.656-.064V166l-.446-.083v-9.378Zm-.457-.148-.11.03-6.983-1.363v-.03Zm-.247.263v9.33l-5.481-1.013a.13.13,0,0,0-.046,0l-1.32.255V155.2Zm-5.631,8.6v17.625l-1.215.183V165.371Zm.255,17.631V165.135l35.791,6.615v17.308Zm34.7-11.483-7.9-1.46V160.75l7.9-1.07Zm-7.9-10.8V159.3a.133.133,0,0,0-.1-.129l-28.162-5.381v-.949l1.328-.2,35.261,6.723Zm-.1-31.135-28.165-5.782v-1.535l36.5,7.524-8.231,1.172v-1.253A.127.127,0,0,0,588.719,129.355Zm-.156.231v10.225l-1.6-.32v-9.513a.129.129,0,0,0-.1-.126l-26.3-5.446v-.57Zm-1.863.546v9.309l-.417-.083V130.2Zm-2.3-.524,1.734.357-.011,0Zm1.624.6v9.094l-7.87-1.572v-9.169Zm-8.129-1.951v9.421l-.409-.081v-9.427Zm-.669-.089v9.376l-.468-.094v-9.2Zm-8.19-1.72v-.027l7.629,1.581-.016,0Zm7.465,1.79V137.4l-7.465-1.489v-9.2Zm-7.723-1.868v9.489l-.425-.086v-9.491Zm-.683-.091v9.443l-.43-.086v-9.274Zm-.527-.161-.062.013-6.956-1.4v-.062Zm-.161.255v9.212l-5.489-1.1a.074.074,0,0,0-.048,0l-1.32.255v-9.752Zm-5.642,8.4V152.4l-1.215.183V135.007Zm.255,17.633V134.774l35.791,7.15v17.305Zm26.8-12.545v-8.87l8.981-1.277.1.022.03,0a.128.128,0,0,0,.078-.03.123.123,0,0,0,.048-.1v-.43l41.909-6.371v16.832l-41.892,6.139v-3.965a.129.129,0,0,0-.1-.126Zm47.427-36.3,16.182,3.61v6.884l-16.182-3.529Zm-16.512,2.564,16.257-2.586v6.93l-.75-.164v-1.941a.125.125,0,0,0-.1-.126l-9.739-2.107a.131.131,0,0,0-.046,0l-5.435.833-.185-.04Zm15.249,2.341v1.785l-9.483-2.07v-1.763Zm-9.739-2.059v1.72l-4.623-1.011Zm-9.365-55.233,1.863.094v55.222l-1.863-.409Zm-19.52,50.916,78.654,17.152v10.7l-34.882-7.408a.086.086,0,0,0-.046,0l-42.03,6.389V111.982a.132.132,0,0,0-.1-.129l-1.594-.339Zm-.258.011v9.36l-24.91-5.314Zm1.7,9.986v17.367l-89.489-18.442V92.986Zm-55.5,386.229-34.13-.9-.481.011V485.2l32.8.911,1.812-.021Zm3.548.352V516.39l-37.543-.68,0-18.031ZM457.888,119.629l.344-.078.172.03-.39.089Zm.051.285V507.893h-.414V119.785Zm-1.11-24.95,8.58-1.543v6.591l-7.271,1.245a.123.123,0,0,0-.1.126v2.435l-1.2.226Zm-.121-.239-.083-.027,8.784-1.556v.016Zm47.435,19.507a.119.119,0,0,0-.1-.032l-9.722,1.6h0l-29.028,4.769a.125.125,0,0,0-.108.126v10l-2.457.392V120.318l44.7-7.239v10.857l-3.234.516V114.329A.122.122,0,0,0,504.143,114.232Zm-9.158,1.758-.086-.024,9.034-1.486v.035Zm8.948-1.215v9.717l-8.835,1.417v-9.674Zm-9.093,1.441v9.733l-.374.062V116.1Zm-.632-.137v9.972l-.546.086v-9.97Zm-9.846,1.669-.121-.032,9.163-1.505v.048Zm9.042-1.228v9.661l-8.978,1.435V118Zm-9.239,1.443v9.7l-.371.059v-9.862Zm-.629-.132v9.927l-.53.086v-9.927Zm-9.572,1.642-.148-.046,8.932-1.468h0Zm8.784-1.25v9.661l-8.7,1.392v-9.556Zm-8.956,1.465v9.628l-.392.065v-9.814Zm-.653-.151v9.886l-.57.089v-9.881ZM466,120.758l-.108-.032,6.416-1.051v.011Zm6.309-.812v9.61l-6.225.995v-9.545Zm-6.483,1.029v9.618l-.392.062v-9.792Zm42.21,3.121v18.028l-49.755,7.623V132.061Zm30.361-4.215-28.716-5.852a.135.135,0,0,0-.11.027.139.139,0,0,0-.046.1v9.929l-1.336-.266a.263.263,0,0,0-.046,0l-.462.075v-10.83l34.6,7.056v10.5l-3.779-.753v-9.857A.129.129,0,0,0,538.4,119.882Zm-8.967-1.489v-.075l8.443,1.72-.2.067Zm8.112,1.949v9.33l-8.112-1.615v-9.4Zm.255-.008.446-.148v9.628l-.446-.091Zm-8.623-2.067v9.739l-.422-.086v-9.739Zm-9.239-1.817v-.067l8.166,1.667-.177.054Zm7.87,1.892v9.389l-7.87-1.57v-9.448Zm.255-.013.43-.132v9.671l-.43-.086Zm-8.387-2v9.779l-.479-.1v-9.782Zm-9.892-1.935v-.081l8.766,1.788-.177.054Zm8.475,2v9.432l-8.475-1.691v-9.478Zm.258-.013.422-.132v9.712l-.422-.083Zm-14.4,28.786a.132.132,0,0,0-.1-.03L465.331,151.1a.125.125,0,0,0-.11.126v10.147l-2.5.371V150.869l44.7-6.779V155.1l-3.261.484V145.268A.134.134,0,0,0,504.119,145.168Zm-9.126,1.659-.078-.024,8.991-1.384v.051Zm8.913-1.1v9.895l-8.822,1.312v-9.862Zm-9.08,1.314v9.929l-.358.054V146.937Zm-.613-.134v10.155l-.546.081V147Zm-9.873,1.564-.094-.027,9.163-1.411v.013Zm9.069-1.164v9.876l-8.983,1.336v-9.8Zm-9.241,1.384v9.865l-.376.056V148.582Zm-.634-.137v10.1l-.535.078V148.638Zm-9.572,1.484-.027,0,8.806-1.357v.013Zm8.779-1.083v9.814l-8.693,1.293v-9.774Zm-8.954,1.309V160.1l-.387.059,0-9.989Zm-.648,9.932-.54.081V150.243l.538-.083Zm-.8-9.661v9.779l-6.242.93V151.5Zm-6.5.954v9.792l-.36.054V151.4Zm42.2,3.777V173.3l-49.755,7.059V162.67ZM504.1,176.15a.129.129,0,0,0-.1-.03l-38.694,5.5a.125.125,0,0,0-.11.126v10.26l-2.473.341v-11l44.7-6.274v11.142l-3.277.449V176.247A.124.124,0,0,0,504.1,176.15Zm-9.1,1.535-.059-.016,8.946-1.274v.021Zm8.887-1.005v10.029l-8.768,1.2v-9.981Zm-9.026,1.234v10.032l-.387.051V177.8Zm-.645-.142v10.26l-.54.075v-10.26Zm-.8.341v10.029l-9,1.234V179.4Zm-9.258,1.282V189.41l-.366.051V179.306Zm-.624-.1V189.5l-.508.07v-10.2Zm-9.142,1.3,8.373-1.193v.019Zm8.373-.917V189.6l-8.717,1.193v-9.9Zm-8.975,1.215v9.943l-.39.054V180.814Zm-.648-.121v10.153l-.527.073V180.841Zm-.785.339v9.921l-6.236.855v-9.87Zm-6.492.9v9.913l-.417.056V181.91Zm42.167,4.395v18.028L458.283,210.9V193.216ZM504.1,207.132a.114.114,0,0,0-.1-.032l-38.718,5.051a.13.13,0,0,0-.113.126V222.6l-2.449.306V211.841l44.7-5.752V217.3l-3.277.409V207.226A.122.122,0,0,0,504.1,207.132Zm-.212.492v10.12l-8.76,1.1V208.769Zm-9.016,1.126v10.123l-.39.048V208.653Zm-.648-.116v10.322l-.548.067V208.707Zm-9.806,1.538,9-1.2v10.08l-9,1.129Zm-.083-.247h0l.1-.013Zm-.175.22v10.072l-.357.046V210.054Zm-.616-.118v10.265l-.524.067V210.1Zm-.782.339v10.026l-8.7,1.089v-9.959Zm-8.956,1.148v10l-.409.051V211.409Zm-.667-.129V221.6l-.551.07V211.457Zm-.809.325V221.7l-6.209.777v-9.962Zm-6.467.8v9.994l-.435.056V212.433Zm42.172,4.973v18.028L458.283,241.4V223.72Zm-3.965,20.625a.131.131,0,0,0-.1-.032l-38.635,4.6a.133.133,0,0,0-.113.129v10.5l-2.5.288V242.353l44.7-5.242v11.335l-3.309.382v-10.62A.141.141,0,0,0,504.073,238.111Zm-1.591.406,1.376-.164v.008Zm1.376.1v10.236l-8.728,1.008V239.608Zm-8.983.978v10.3l-.4.043V239.531Zm-.656-.1v10.47l-.554.065V239.568Zm-.812.3v10.257l-8.973,1.035v-10.22Zm-9.231,1.062v10.26l-.374.046V240.786Zm-.629-.1V251.2l-.554.064V240.837Zm-.812.309v10.214l-8.658,1V242.127Zm-8.916,1.038v10.2l-.438.051V242.025Zm-.7-.1V252.4l-.532.062V242.076Zm-.79.28v10.2l-6.182.712V243.041Zm-6.438.745v10.2l-.414.046V242.96Zm42.143,5.6v18.028l-49.755,5.392V254.371Zm-3.933,20.44a.128.128,0,0,0-.1-.032l-9.671,1.029a.125.125,0,0,0-.046.005L465.3,273.166a.126.126,0,0,0-.113.126v10.583l-2.468.253V272.851h0l44.7-4.739v11.456l-3.277.333V269.174A.13.13,0,0,0,504.106,269.077Zm-.215.454v10.4l-8.776.9V270.429Zm-9.037.89v10.429l-.4.04V270.354Zm-.656-.073v10.569l-.548.056V270.408Zm-.806.282V281l-8.946.911V271.574Zm-9.2.927v10.381l-.382.038V271.491Zm-.64-.075V282l-.57.059V271.542Zm-.828.285v10.319l-8.653.884V272.7Zm-8.911.909V283l-.384.04V272.6Zm-.64-.089v10.475l-.581.059V272.649Zm-.839.333v10.225l-6.18.632V273.55Zm-6.438.618V283.8l-.446.046v-10.4Zm42.145,6.225V297.8l-49.755,4.731v-17.69Zm-3.943,20.343a.137.137,0,0,0-.1-.035L465.3,303.779a.127.127,0,0,0-.116.129v10.556l0,.019-2.468.218V303.344l44.7-4.234v11.612l-3.29.293,0-.005V300.2A.12.12,0,0,0,504.095,300.107Zm-.215.234v10.55l-8.763.782V301.183Zm-9.021.866V311.7l-.393.038V301.244Zm-.651.062v10.489l-.54.048V301.322Zm-.8.075v10.483l-9,.806V302.209Zm-9.26.89v10.419l-.36.035V302.266Zm-.618.059v10.416l-.5.048V302.341Zm-.761.07v10.413l-8.736.78V303.2Zm-8.994.866V313.58l-.409.038V303.263Zm-.664.062v10.352l-.513.043V303.341Zm-.774.073v10.346l-6.234.556v-10.3Zm-6.494.624v10.3l-.4.035v-10.3Zm42.191,6.94v18.031l-49.755,4.086v-17.69Zm0,31.135v18.031l-49.755,3.535v-17.69Zm-45.314,3.274v-11.51l44.7-3.709v11.736Zm45.314,27.815v18.031L458.283,394.2v-17.69Zm-45.314,2.8V364.281l44.7-3.167v11.822Zm45.314,28.337v18.031L458.283,424.7v-17.69Zm-45.314,2.218V394.841l44.7-2.736v11.964Zm45.314,28.907v18.031l-49.755,1.825v-17.69Zm-45.314,1.715V425.3l44.7-2.193v12.074Zm45.314,29.409v18.034l-49.755,1.274V468.161Zm-45.314,1.218V455.78l44.7-1.616V466.3Zm-.03,18.252-.247-.008,45.717-1.175,29.1.938-29.692-.825Zm44.731-.806v12.228l-44.7.949V486.265Zm-44.96-17.434-4.271.137v-12.37l4.271.234Zm0-30.624-4.271.183V424.965l4.271.325Zm0-30.624-4.271.234V394.47l4.271.352Zm0-30.549-4.271.29V363.9l4.271.365Zm0-30.614-4.271.333V333.318l4.271.481Zm0-30.632-4.271.382V302.8l4.271.513Zm0-30.573-4.271.438V272.338l4.271.489Zm0-30.52-4.271.492V241.686l4.271.642Zm0-30.7-4.271.535V211.188l4.271.632Zm0-30.552-4.271.586V180.642l4.271.68Zm0-30.6-4.271.637V150.036l4.271.8Zm0-30.654-4.271.685V119.9l.868-.2,3.4.594Zm-4.271,354.98,4.271.145v12.128l-4.271.089Zm.089,12.62,49.755-1.054V515.71l-49.755.71ZM508.3,484.574l0-18.028,37.546,1.511v17.725Zm33.992-16.918-34.13-1.376-.478.016V454.162l32.8,1.505,1.806-.067Zm-1.806-12.247L507.592,453.9l-44.9,1.626-1.707-.094,47.174-1.728,34.71,1.621ZM508.3,453.45l0-18.031,37.546,2.056v17.73Zm33.968-16.426-34.105-1.868-.478.021V423.11l32.8,2.021h.011l1.771-.075Zm-1.777-12.15-32.917-2.029h-.016l-44.865,2.2-2.449-.188,47.924-2.285,35.347,2.169ZM508.3,422.326l0-18.031,37.546,2.607v17.727Zm33.966-15.932-34.089-2.365h-.016l-.476.027V392.1l32.85,2.524h.019l1.712-.1Zm-1.72-12.026-32.936-2.529h-.019L462.7,394.583l-2.736-.226,48.2-2.922,35.912,2.718ZM508.3,391.185l0-18.028,37.546,3.145v17.725Zm9.927-17.7-8.427-.761V362.262l8.427.8Zm.261.024V363.085l.46.046v10.424Zm.718.067V363.157l.46.04v10.421Zm.72.065V363.224l7.87.745v10.387Zm8.129.734V364l.446.043v10.378Zm.7.065V364.06l.409.04v10.376Zm.667.059V364.125l8.118.771v10.341Zm8.376.761V364.921l.468.043V375.3Zm4.494.484-3.766-.315V364.848a.129.129,0,0,0-.118-.126l-28.724-2.731a.127.127,0,0,0-.1.035.122.122,0,0,0-.04.094v10.722a.127.127,0,0,0,.118.129l5.828.527-7.311-.61h-.019l-.476.03V361.1l32.786,2.962h.019l1.8-.126Zm-1.809-11.937L507.64,360.84h-.021l-44.943,3.183-2.868-.245,48.36-3.435,36.175,3.191ZM508.3,360.1l0-18.031,30.076,2.9.008,0h0l7.459.72v17.722Zm1.5-18.338V331.294l8.405.909v10.421Zm8.663.892V332.229l.478.051V342.7Zm.736.075V332.31l.454.051v10.413Zm.712.073V332.385l7.884.855v10.373Zm8.142.841V333.264l.446.051v10.37Zm.7.073v-10.37l.46.048v10.37Zm.718.075V333.42l8.045.868.054,10.333Zm8.3-9.473.489.056v10.319l-.438-.043Zm4.532,10.768-3.782-.366V334.256a.127.127,0,0,0-.116-.129l-28.724-3.1a.126.126,0,0,0-.1.03.137.137,0,0,0-.04.1v10.728a.1.1,0,0,0,.013.048l-1.376-.132h-.024l-.473.038V330.114l32.74,3.387h.024l1.86-.137Zm-1.868-11.838-32.847-3.4h-.022l-44.863,3.723-3.22-.363,48.68-4,36.345,3.734ZM508.3,328.96l0-18.031,37.546,4.164v17.725Zm1.5-18.123V300.344l8.413.965v10.459Zm8.672.96V301.339l.481.054v10.459Zm.737.081V301.422l.441.051v10.456Zm.7.081V301.5l7.9.9v10.427Zm8.155.9V302.438l.433.046v10.424Zm.688.075V302.513l.43.051v10.421Zm.685.075V302.591l8.094.927V313.91Zm8.352.927V303.551l.481.054v10.389Zm4.5.5-3.761-.419V303.489a.133.133,0,0,0-.116-.129l-28.721-3.287a.149.149,0,0,0-.1.032.139.139,0,0,0-.04.1v10.607l-1.363-.151-.027,0-.47.043V299.107l32.764,3.919h.027l1.812-.14Zm-1.82-11.671-32.853-3.93h-.03l-44.876,4.247-3.347-.4,48.806-4.639,36.5,4.4ZM508.3,297.8l0-18.028,37.546,4.828v17.727Zm9.911-27.208v10.2l-8.395-1.081V269.464Zm-8.395-1.384V269.2l3.992.543Zm8.655,11.612V270.582l.476-.1V280.88Zm.734.094V270.475l.452.062v10.432Zm.71.091V270.819l7.87,1.016v10.182Zm8.129,1.046V271.835l.457-.059v10.333Zm.712.091V271.776l.427.059v10.36Zm.688.089V272.061l8.08,1.075v10.131Zm8.338,1.073V273.144l.508-.043v10.266Zm4.524.581-3.758-.481v-10.44a.133.133,0,0,0-.11-.129L509.7,268.921a.126.126,0,0,0-.145.126v10.626l-1.376-.177h-.03l-.47.046V268.1l32.81,4.355h.032l1.78-.18Zm-1.79-11.679-32.9-4.368h-.032l-44.871,4.758-3.389-.387,48.846-5.3,36.694,4.846ZM508.3,266.669l0-18.028,37.546,5.26v17.725Zm9.881-26.834v9.932l-8.389-1.177v-10Zm-3.113-.726,3.293.47-.056.013Zm3.368,10.693v-9.975l.5-.116v10.161Zm.761.1V239.7l.457.067v10.206Zm.715.1v-9.991l7.852,1.148v9.943Zm8.11,1.134v-9.983l.484-.089v10.142Zm.742.1V241.063l.438.062v10.185Zm8.739-8.661v9.886l-8.042-1.129v-9.935Zm-4.352-.9,4.527.645-.048.011Zm4.61,10.819v-9.929l.476-.1v10.1Zm4.535.637-3.8-.535V242.3a.125.125,0,0,0-.11-.126l-28.7-4.1a.128.128,0,0,0-.1.032.13.13,0,0,0-.043.1v10.343l-1.347-.185a.164.164,0,0,0-.035,0l-.468.054V237.106l32.8,4.817a.112.112,0,0,0,.032,0l1.777-.22ZM540.5,241.667l-32.885-4.833-.035,0L462.667,242.1l-3.543-.535,49.043-5.806L545,241.108Zm-32.2-6.15,0-18.028,37.546,5.758v17.725Zm9.935-26.6v9.838l-8.427-1.29v-9.916Zm-8.427-1.629v-.013l8.62,1.379-.083.022Zm8.685,11.507V208.9l.476-.11v10.075Zm.731.113V208.78l.446.07v10.123Zm8.561-8.478v9.79l-7.857-1.2v-9.849Zm-7.857-1.524v-.011l8.021,1.285-.038.008Zm8.115,11.354v-9.838l.465-.1v10.01Zm.723.11V210.307l.427.07v10.056ZM537.533,212v9.709l-8.083-1.239V210.7Zm-8.083-1.57v-.016l8.285,1.328-.075.016Zm8.341,11.319v-9.757l.473-.113v9.943Zm4.492.688-3.758-.575V211.72a.133.133,0,0,0-.11-.129l-28.716-4.6a.138.138,0,0,0-.1.03.136.136,0,0,0-.043.1v10.3l-1.366-.21h-.035l-.468.059V206.084l32.775,5.3a.075.075,0,0,0,.035,0l1.79-.207Zm-1.8-11.314-32.866-5.314a.088.088,0,0,0-.038,0l-44.911,5.776-3.578-.53,49.075-6.387L545.03,210.6Zm-32.186-6.7,0-18.026,37.546,6.341V210.47Zm9.948-26.375v9.768L509.82,186.4v-9.814Zm-8.427-1.731v-.032l8.524,1.513-.016,0Zm8.685,11.542v-9.83l.449-.078v9.983Zm.7.118V177.959l.454.081v10.024Zm8.561-8.223v9.669l-7.849-1.325v-9.76Zm-7.54-1.621,7.728,1.368-.064.013Zm7.8,11.333V179.76l.465-.1v9.9Zm.723.124v-9.946l.427.075v9.943Zm.688.116V179.98l8.072,1.443v9.655Zm8.333,1.409v-9.69l.473-.059V191.2Zm4.524.763-3.8-.64V181.228a.127.127,0,0,0-.1-.126l-28.681-5.091a.147.147,0,0,0-.1.03.133.133,0,0,0-.046.1v10.217l-1.376-.231a.2.2,0,0,0-.04,0l-.465.065V175.072l32.753,5.782a.165.165,0,0,0,.038,0l1.822-.218ZM540.463,180.6l-32.845-5.8a.1.1,0,0,0-.04,0l-44.887,6.3-3.669-.589,49.145-6.97,36.917,6.508ZM508.3,173.3l0-18.026,37.546,6.924v17.722Zm9.9-26.074v9.612l-8.4-1.548v-9.669Zm-8.4-1.865v-.011l8.612,1.621-.083.016Zm8.658,11.526v-9.663l.487-.1v9.854Zm.745.137V147.12l.452.083v9.905Zm8.6-7.962v9.545l-7.887-1.454V147.56Zm-7.887-1.766v-.046l8.137,1.532-.148.035Zm8.142,11.36v-9.61l.454-.118v9.811Zm.712.132v-9.87l.425.078v9.87Zm8.768-7.94V160.4l-8.086-1.489v-9.58Zm-8.086-1.777v-.027l8.293,1.559-.051.011Zm8.344,11.381v-9.593l.46-.1v9.784Zm4.5.831-3.777-.7v-9.991a.132.132,0,0,0-.108-.126l-9.741-1.831h0L509.7,145.069a.138.138,0,0,0-.1.03.125.125,0,0,0-.046.1v10.048l-1.355-.253a.116.116,0,0,0-.043,0l-.465.07V144.088l32.837,6.239a.115.115,0,0,0,.043,0l1.728-.234Zm-1.745-11.214-32.933-6.258a.116.116,0,0,0-.043,0l-44.895,6.806-3.752-.7,49.244-7.545,37,7.078ZM508.3,142.131l0-18.026,37.546,7.486v17.722Zm-.659-29.34a.1.1,0,0,0-.048,0l-44.922,7.276-3.742-.653,49.252-8.163,38.608,7.956-4.4.672Zm.892-74.552,1.285-.067V64.05l-1.285-.293ZM507.3,63.74l36.393,8.3v28.24L508.207,92.7a.147.147,0,0,0-.048,0l-.855.148Zm.747,29.237v18.028l-49.763,8.249V101.491Zm-8.123-78.7,2.091-.081V64.386l-2.091.379Zm7.118,49.462V92.889L466.662,99.8V71.068ZM451.907,65.09,467.32,68.5v2.185l-.812.151a.124.124,0,0,0-.1.124v1.761l-14.5,2.613Zm14.5,7.892V99.843l-.737.126V92.989a.12.12,0,0,0-.048-.1.129.129,0,0,0-.1-.03l-9.456,1.677a.13.13,0,0,0-.1.126v9.65a.129.129,0,0,0,.046.1.131.131,0,0,0,.083.03h.024l1.927-.36v6.954l-7.274,1.263V75.8Zm-9.833,21.969v9.142l-.36.067V94.838Zm-49,456.544V81.82l38.24-6.908.04,259.637.035,216.946Zm42.925,0h-4.352l-.04-251.525-.035-225.056,4.427.887ZM445.967,74.63l-.021,0-.027,0-14.827,2.68V68.9l20.558-3.82v10.3l-1.019.183Zm16.5,476.865H450.759V112.56l7.274-1.263v8.037l-.664.151a.132.132,0,0,0-.1.121v.005h0V508.022a.127.127,0,0,0,.126.129h.632v8.4a.124.124,0,0,0,.038.091.131.131,0,0,0,.091.04h0l4.306-.064Zm44.96,0h-44.7v-34.88l44.7-.642Zm34.869,0H507.683V515.97l.484-.008,34.127.624Zm5.1,0h-4.838V516.588l3.417.062a.153.153,0,0,0,.091-.035.147.147,0,0,0,.038-.094V498.539a.132.132,0,0,0-.124-.129l-3.422-.089V486.085l3.419-.043h0a.13.13,0,0,0,.086-.035.136.136,0,0,0,.04-.091V467.93a.13.13,0,0,0-.124-.129l-3.424-.137V455.592l3.424-.126h0a.128.128,0,0,0,.124-.126V437.354a.128.128,0,0,0-.124-.129l-3.451-.188V425.043l3.451-.15v0a.131.131,0,0,0,.083-.03.148.148,0,0,0,.04-.094V406.781a.129.129,0,0,0-.121-.129l-3.459-.242v-11.9l3.457-.212h0a.128.128,0,0,0,.124-.129V376.183a.129.129,0,0,0-.121-.129l-3.427-.288V363.918l3.427-.242h0a.143.143,0,0,0,.081-.032.137.137,0,0,0,.04-.094V345.567a.127.127,0,0,0-.118-.129l-3.416-.331V333.345l3.414-.255v0a.128.128,0,0,0,.121-.126V314.977a.128.128,0,0,0-.116-.129l-3.441-.382v-11.6l3.435-.269v0a.15.15,0,0,0,.078-.027.141.141,0,0,0,.043-.1V284.485a.126.126,0,0,0-.116-.126l-3.422-.441V272.252l3.419-.349V271.9a.129.129,0,0,0,.075-.027.13.13,0,0,0,.043-.1V253.79a.13.13,0,0,0-.113-.129l-3.435-.481V241.673l3.433-.425v0a.11.11,0,0,0,.07-.03.12.12,0,0,0,.046-.1V223.136a.125.125,0,0,0-.11-.126l-3.449-.53V211.148l3.443-.4v0a.129.129,0,0,0,.07-.024.133.133,0,0,0,.046-.1V192.638a.132.132,0,0,0-.107-.129l-3.438-.581V180.609l3.43-.406v0a.136.136,0,0,0,.07-.03.12.12,0,0,0,.046-.1V162.092a.125.125,0,0,0-.1-.126l-3.446-.637V150.058l3.438-.462v0a.128.128,0,0,0,.067-.024.134.134,0,0,0,.046-.1v-17.98a.132.132,0,0,0-.1-.129l-3.46-.688V120.116l4.857-.745Zm12.9,0H547.651V119.379l12.644,2.607Zm28.267,0H560.554V516.938l1.328.011,26.681.438Zm8.193,0h-7.935V517.389l7.935.126Zm6.215,0h-5.957V517.521l.927.016h0a.143.143,0,0,0,.091-.035.134.134,0,0,0,.038-.094V499.839a.133.133,0,0,0-.126-.132l-.938-.019V487.7l.935-.022h0a.155.155,0,0,0,.091-.038.147.147,0,0,0,.038-.094V469.984a.129.129,0,0,0-.126-.132l-.944-.038V457.869l.944-.038v0a.122.122,0,0,0,.086-.032.137.137,0,0,0,.04-.094V440.131a.127.127,0,0,0-.124-.126l-.957-.051V428.059l.957-.051h0a.13.13,0,0,0,.083-.035.137.137,0,0,0,.04-.094V410.31a.128.128,0,0,0-.124-.129l-.981-.067V398.257l.981-.051v0a.131.131,0,0,0,.083-.035.137.137,0,0,0,.04-.094V380.506a.129.129,0,0,0-.118-.129l-.995-.081V368.4l.992-.07h0a.133.133,0,0,0,.081-.032.138.138,0,0,0,.04-.1V350.636a.126.126,0,0,0-.118-.126l-.97-.1V338.586l.968-.075v0a.108.108,0,0,0,.078-.032.124.124,0,0,0,.043-.094V320.813a.129.129,0,0,0-.116-.129l-.973-.11V308.782l.97-.086v0a.115.115,0,0,0,.075-.03.13.13,0,0,0,.043-.1V291a.13.13,0,0,0-.113-.129l-.968-.124V278.964l.962-.091v0a.132.132,0,0,0,.075-.03.13.13,0,0,0,.043-.1V261.174a.13.13,0,0,0-.113-.129l-.976-.14v-11.79l.973-.11v0a.119.119,0,0,0,.116-.126V231.308a.125.125,0,0,0-.11-.126l-.978-.153v-11.72l.973-.11v0a.116.116,0,0,0,.07-.03.124.124,0,0,0,.046-.1V201.5a.132.132,0,0,0-.107-.129l-.981-.167V189.464l.976-.124v0a.124.124,0,0,0,.067-.027.129.129,0,0,0,.046-.1V171.642a.127.127,0,0,0-.107-.126l-.987-.183V159.648l.981-.134v0a.145.145,0,0,0,.067-.024.135.135,0,0,0,.046-.1v-12.9l2.79.645a.146.146,0,0,0,.048,0l38.11-5.613v10.3l-1.976.28V142.5a.121.121,0,0,0-.043-.1.132.132,0,0,0-.1-.03l-31.5,4.548a.126.126,0,0,0-.113.126V156.6l-6.8.968a.13.13,0,0,0-.11.129v16.878a.118.118,0,0,0,.043.1.121.121,0,0,0,.1.032l.081-.011,4.11.766a.1.1,0,0,0,.04,0l36.261-4.916v10.346l-1.97.258v-9.671a.128.128,0,0,0-.04-.1.134.134,0,0,0-.1-.03l-20.813,2.766h0l-10.682,1.422a.128.128,0,0,0-.113.126v9.623l-6.8.887a.13.13,0,0,0-.113.129v16.878a.121.121,0,0,0,.043.1.125.125,0,0,0,.1.032l.086-.011,4.107.766a.215.215,0,0,0,.04,0l36.277-4.559v10.481l-1.986.239v-9.79a.122.122,0,0,0-.142-.126l-10.325,1.279h0l-21.171,2.632a.128.128,0,0,0-.116.126v9.733l-6.8.825a.13.13,0,0,0-.113.129v16.878a.121.121,0,0,0,.043.1.125.125,0,0,0,.1.032l.094-.011,4.1.707h.038l36.277-4.209v10.591l-1.986.22v-9.9a.128.128,0,0,0-.04-.1.139.139,0,0,0-.1-.032l-31.5,3.562a.13.13,0,0,0-.116.129v9.862l-6.8.755a.129.129,0,0,0-.116.129v16.878a.121.121,0,0,0,.043.1.135.135,0,0,0,.1.032l.11-.011,4.089.6h.035L639,257.546v10.687l-1.954.2v-9.956a.128.128,0,0,0-.04-.1.125.125,0,0,0-.1-.032l-31.5,3.282a.131.131,0,0,0-.118.129v9.911l-6.8.691a.127.127,0,0,0-.118.129v16.878a.128.128,0,0,0,.04.1.157.157,0,0,0,.1.032l.132-.013,4.072.516h.027L639,286.533v10.83l-1.954.177V287.45a.126.126,0,0,0-.04-.094.122.122,0,0,0-.1-.032l-31.5,2.97a.133.133,0,0,0-.118.129v9.98l-6.8.613a.126.126,0,0,0-.118.126v16.883a.131.131,0,0,0,.04.094.145.145,0,0,0,.1.032l.14-.011,4.067.513h.027L639,315.615v10.846l-1.978.161a.118.118,0,0,0,.024-.073V316.48a.126.126,0,0,0-.04-.094.119.119,0,0,0-.1-.032l-31.5,2.578a.129.129,0,0,0-.121.129v9.959a.151.151,0,0,0,.04.1.142.142,0,0,0,.089.035h.011l15.854-1.245-22.786,1.86a.127.127,0,0,0-.121.129v16.878a.126.126,0,0,0,.04.094.131.131,0,0,0,.1.035l.172-.013,4.037.411h.022l36.285-2.734V355.55L598.5,358.383a.127.127,0,0,0-.121.129V375.39a.127.127,0,0,0,.04.094.131.131,0,0,0,.1.035l.183-.013,4.027.411.022,0,36.285-2.253v11.018L598.5,387.1a.128.128,0,0,0-.121.129v16.878a.126.126,0,0,0,.04.094.121.121,0,0,0,.094.035l.21-.011,4.005.371h.019l36.285-1.995v11.2L598.5,415.791a.127.127,0,0,0-.121.129V432.8a.139.139,0,0,0,.038.094.131.131,0,0,0,.1.035l.261-.011,3.954.3h.016l36.288-1.5V442.9L598.5,444.5a.13.13,0,0,0-.121.132v16.878a.134.134,0,0,0,.038.094.146.146,0,0,0,.094.035l.4-.013,3.836.175,36.288-1.159v11.365l-40.53,1.177a.13.13,0,0,0-.124.129v16.878a.13.13,0,0,0,.038.094.146.146,0,0,0,.094.038l.535-.013,3.7.134,36.288-.771V501.06l-40.527.823a.126.126,0,0,0-.126.126v16.881a.133.133,0,0,0,.038.092.122.122,0,0,0,.091.038l4.462-.067ZM616.55,318.4v9.615l-.323.024v-9.7Zm-.578-.078v9.739l-.53.04V318.37Zm-.785.239v9.559l-9.072.715v-9.5Zm-9.333.742v9.55l-.3.024V319.23Zm33.178,232.187H603.226V518.948l35.807-.54Zm35.38,0H639.288V518.4l.771-.008,34.353.653Zm5.768,0h-5.513V519.053l4.7.089h0a.133.133,0,0,0,.091-.038.14.14,0,0,0,.038-.091l.081-16.754a.127.127,0,0,0-.126-.129L674.667,502V490.743l4.7-.164h0a.14.14,0,0,0,.086-.038.131.131,0,0,0,.04-.091l.081-16.754a.13.13,0,0,0-.124-.129l-4.787-.194V462.221l4.707-.231h0a.137.137,0,0,0,.083-.035.132.132,0,0,0,.04-.094l.081-16.754a.128.128,0,0,0-.121-.129l-4.79-.258V433.728l4.707-.228h0a.144.144,0,0,0,.083-.035.137.137,0,0,0,.04-.094l.081-16.757a.129.129,0,0,0-.121-.126l-4.793-.336V405.241l4.712-.317h0a.144.144,0,0,0,.081-.035.137.137,0,0,0,.04-.094l.081-16.757a.127.127,0,0,0-.118-.126l-4.809-.4V376.667l4.725-.317h0a.144.144,0,0,0,.081-.035.132.132,0,0,0,.04-.094l.081-16.754a.131.131,0,0,0-.116-.129l-4.793-.47V348.12l4.707-.352h0a.143.143,0,0,0,.078-.032.134.134,0,0,0,.043-.094l.081-16.754a.129.129,0,0,0-.116-.129l-4.8-.535v-10.58l4.709-.349v0a.123.123,0,0,0,.121-.126l.081-16.754a.13.13,0,0,0-.113-.129l-4.8-.61V291.146l4.8-.433h0a.117.117,0,0,0,.07-.03.124.124,0,0,0,.046-.1v-16.8a.132.132,0,0,0-.11-.126l-4.8-.675V262.634l4.8-.476v0a.142.142,0,0,0,.07-.027.128.128,0,0,0,.046-.1v-16.8a.128.128,0,0,0-.108-.126l-4.828-.747v-10.2l4.822-.573h0a.143.143,0,0,0,.067-.027.13.13,0,0,0,.046-.1v-16.8a.13.13,0,0,0-.108-.129l-4.806-.814V205.67l4.8-.567v0a.151.151,0,0,0,.065-.027.128.128,0,0,0,.048-.1v-16.8a.13.13,0,0,0-.1-.126l-4.809-.89V177.139l4.8-.642v0a.129.129,0,0,0,.11-.126v-16.8a.129.129,0,0,0-.1-.124l-4.809-.952v-9.884l4.812-.691h0a.181.181,0,0,0,.062-.027.132.132,0,0,0,.048-.1V134.464l.548.142a.087.087,0,0,0,.046,0Zm4.193,0h-3.935V134.575l3.935-.556Zm30.205,0h-29.95V134.029l29.95,6.279Zm30.552-333.076a2.377,2.377,0,0,1-.511.056c-.073,0-.142-.005-.21-.011l-.261-.038h0c-1.473-.306-2.6-2.032-2.6-4.107,0-2.449,1.629-4.685,3.631-4.989a2.637,2.637,0,0,1,.382-.03c.078,0,.156.005.231.011l.263.038c1.535.3,2.718,2,2.718,4.035A4.958,4.958,0,0,1,745.131,218.419Zm.374.167a5.255,5.255,0,0,0,3.524-5.2,4.6,4.6,0,0,0-1.823-3.822,4.065,4.065,0,0,1,2.363,3.938,4.95,4.95,0,0,1-3.642,5.032A2.039,2.039,0,0,1,745.5,218.586Zm.814.11v9.862l-.513.056v-9.8c.059-.008.118-.019.18-.032C746.1,218.76,746.209,218.728,746.319,218.7Zm-11.185.943a3.421,3.421,0,0,1-2.379,3.435,3.761,3.761,0,0,0,2.089-3.516,3.35,3.35,0,0,0-1.024-2.494A2.93,2.93,0,0,1,735.134,219.639Zm-1.954,3.567v6.787l-.425.048v-6.7A2.9,2.9,0,0,0,733.18,223.206Zm-1.317-9.43a2.889,2.889,0,0,1-.656.075c-.094,0-.186-.005-.277-.013l-.331-.051h0c-1.895-.4-3.352-2.629-3.352-5.312,0-3.164,2.091-6.056,4.661-6.451a3.443,3.443,0,0,1,.5-.035,2.734,2.734,0,0,1,.3.016l.339.046c1.976.392,3.492,2.586,3.492,5.22A6.4,6.4,0,0,1,731.863,213.777Zm.21.215a6.674,6.674,0,0,0,4.72-6.72,5.784,5.784,0,0,0-2.537-5.024c1.9.5,3.3,2.658,3.3,5.174a6.392,6.392,0,0,1-4.669,6.5A3.052,3.052,0,0,1,732.072,213.992Zm1.121.121v2.478l-.411-.059-.019,0v-2.317c.057-.011.116-.022.172-.035C733.021,214.158,733.11,214.137,733.193,214.113Zm-1.089,8.911a1.524,1.524,0,0,1-.347.038c-.048,0-.094,0-.14-.005l-.183-.027h0a2.732,2.732,0,0,1-1.763-2.82,3.393,3.393,0,0,1,2.478-3.435,1.644,1.644,0,0,1,.258-.019,1.558,1.558,0,0,1,.156.008l.18.024a2.685,2.685,0,0,1,1.841,2.771A3.406,3.406,0,0,1,732.1,223.023ZM718.667,551.495h-3.83V262.08l3.83.629Zm39.7,0H718.925V458.872l39.438-1.266Zm0-94.145-39.438,1.263V383.226l39.438-2.325Zm0-76.71-39.438,2.33V307.5l39.438-3.368Zm0-76.769-39.438,3.368V262.6a.125.125,0,0,0-.107-.126l-3.981-.659V232.262l43.527-4.763Zm32.173,247.624H758.622V509.922l31.915.747Zm0-41.083-31.915-.747V467.341l31.915,1.468Zm0-41.86-31.915-1.465v-42.35l31.915,2.175Zm0-41.9-31.915-2.175v-42.3l31.915,2.884Zm0-41.85-31.915-2.884V339.57l31.915,3.6Zm0-41.89-31.915-3.6V297.016l31.915,4.3Zm0-41.863-31.915-4.3V254.446l31.915,5Zm6.736,250.444h-6.478v-40.82l6.478.151Zm0-40.928-6.478-.15v-41.6l6.478.3Zm0-41.707-6.478-.3V426.927l6.478.441Zm0-41.747-6.478-.441V385.086l6.478.586Zm0-41.7-6.478-.586V343.2l6.478.731Zm0-41.737-6.478-.731v-41.6l6.478.874Zm0-41.718-6.478-.871v-41.6l6.478,1.013Zm30.735,249.538H797.525V510.833l30.482.712Zm0-40.207-30.482-.715V469.129l30.482,1.4Zm0-41.016-30.482-1.4V427.387l30.482,2.078Zm0-41.065-30.482-2.081V385.693l30.482,2.755Zm0-41.016-30.482-2.755V343.965l30.482,3.441Zm0-41.043L797.525,343.7V302.25l30.482,4.1Zm0-41.054-30.482-4.1V260.543l30.482,4.779Zm0-41.035-69.385-10.873V227.507l69.385,11.841ZM865.68,551.495H828.268V370.568l37.412-2.3Zm71.837,0H865.938V368.27l71.579,7.427Z" />
            <style>
                    #loader path {
            stroke-dasharray: 100px;
            stroke: #bf953f;
            stroke-dasharray: 75614px;
            stroke-dashoffset: 75614px;
            stroke-width: 1px;
            animation: lineanim 100s;
        }

        @keyframes lineanim {
            to {
                stroke-dashoffset: 0;
            }
        }
        </style>
        </svg>